<?xml version="1.0" encoding="UTF-8"?>
<svg width="85px" height="133px" viewBox="0 0 85 133" version="1.1" xmlns="http://www.w3.org/2000/svg" xmlns:xlink="http://www.w3.org/1999/xlink">
    <title>编组备份 3</title>
    <defs>
        <polygon id="path-1" points="0.631142624 0.587521161 36.6522 0.587521161 36.6522 117.663946 0.631142624 117.663946"></polygon>
    </defs>
    <g id="页面-1" stroke="none" stroke-width="1" fill="none" fill-rule="evenodd" opacity="0.2">
        <g id="主页-——-1440" transform="translate(-826.000000, -958.000000)">
            <g id="编组备份-3" transform="translate(524.000000, 958.000000)">
                <g transform="translate(302.000000, -10.000000)">
                    <path d="M50.498769,82 C41.0433856,82 30,79.712047 30,73.2647731 C30,71.4613124 31.3774995,70 33.0775236,70 C34.5781241,70 35.8275986,71.1400588 36.0996517,72.647078 C37.2740347,73.6891936 42.409806,75.4704538 50.498769,75.4704538 C58.5889629,75.4704538 63.7247343,73.6891936 64.9003483,72.647078 C65.1711704,71.1400588 66.4218759,70 67.9224764,70 C69.6225005,70 71,71.4613124 71,73.2647731 C71,79.712047 59.9566144,82 50.498769,82 L50.498769,82 Z" id="Fill-1" fill="#050101"></path>
                    <path d="M49.0006208,143 C28.7719835,143 7,138.611251 7,128.977442 C7,127.332703 8.38938406,126 10.1040752,126 C11.8187664,126 13.2081504,127.332703 13.2081504,128.977442 C13.2081504,131.39036 25.3848166,137.045117 49.0006208,137.045117 C72.6151834,137.045117 84.7918496,131.39036 84.7918496,128.977442 C84.7918496,127.332703 86.1812336,126 87.8959248,126 C89.6106159,126 91,127.332703 91,128.977442 C91,138.611251 69.2292581,143 49.0006208,143" id="Fill-3" fill="#050101"></path>
                    <path d="M10.1197775,131 C9.7394719,131 9.35312973,130.926379 8.97886075,130.770549 C7.4359067,130.131276 6.69581998,128.33984 7.32724796,126.77172 L28.6472993,73.7538042 L0.362222993,20.5260693 C-0.428571141,19.035251 0.118344496,17.1738754 1.58523743,16.3689562 C3.04609377,15.564037 4.88242641,16.119873 5.67442786,17.6106913 L34.6380176,72.1145176 C35.0666159,72.9218908 35.1173233,73.8838674 34.775652,74.732959 L12.9147216,129.091998 C12.4366232,130.280972 11.308987,131 10.1197775,131" id="Fill-5" fill="#050101"></path>
                    <g id="编组" transform="translate(64.000000, 14.000000)">
                        <mask id="mask-2" fill="white">
                            <use xlink:href="#path-1"></use>
                        </mask>
                        <g id="Clip-8"></g>
                        <path d="M23.7452433,117.663946 C22.4884767,117.663946 21.3081767,116.893258 20.8493767,115.648113 L0.81881,61.1935708 C0.51911,60.3774042 0.580776667,59.4727375 0.986543333,58.7032792 L30.84061,2.22921667 C31.6336433,0.725945833 33.50091,0.151925 35.0055767,0.942279167 C36.51271,1.7338625 37.08991,3.5923625 36.2968767,5.093175 L7.08044333,60.3601958 L26.64111,113.532717 C27.22571,115.126946 26.4055433,116.892029 24.80591,117.475883 C24.4556433,117.603717 24.0979767,117.663946 23.7452433,117.663946" id="Fill-7" fill="#050101" mask="url(#mask-2)"></path>
                    </g>
                    <path d="M24.2140644,130 C23.8205982,130 23.4207028,129.93015 23.0310941,129.784323 C21.3813648,129.160575 20.5725731,127.381238 21.2270643,125.807775 L37.7963639,85.9356885 C38.4482834,84.3634512 40.3140333,83.5926504 41.9689059,84.2163986 C43.6186352,84.8389212 44.4274269,86.6194831 43.7729357,88.1917205 L27.2036361,128.063807 C26.7047313,129.267188 25.4934725,130 24.2140644,130" id="Fill-9" fill="#050101"></path>
                    <path d="M66.1974352,33 C65.976449,33 65.752908,32.9782681 65.5306445,32.9335971 C63.8049083,32.5870946 62.7038095,30.9849731 63.0704166,29.3538759 L68.6819332,4.39120654 C69.0485403,2.75890199 70.752561,1.72180908 72.4693555,2.06589694 C74.1950917,2.41239947 75.2961905,4.01452087 74.9295834,5.6456181 L69.3167895,30.6082875 C68.9974452,32.0268954 67.6715281,33 66.1974352,33" id="Fill-11" fill="#050101"></path>
                    <path d="M35.9478658,15 C47.3476209,15 53.4791777,22.1167633 67.6622244,21.9677714 C81.8440481,21.8175781 94.7504004,15.0720928 94.7504004,15.0720928 C94.7504004,15.0720928 102.624572,21.9677714 78.8406369,27.0479124 C55.0554794,32.1280534 52.9716795,30.9817775 45.6991689,30.6633676 C38.4266583,30.343756 24.0821905,29.3140302 17.5409665,27.2545785 C10.9985196,25.1951269 8,23.8722235 8,23.8722235 C8,23.8722235 24.5505564,15 35.9478658,15 Z" id="Fill-13" fill-opacity="0.5" fill="#A0CF81"></path>
                    <path d="M6.17986465,16.9993865 C6.17986465,20.687597 21.823574,27.8652521 50.499382,27.8652521 C79.176426,27.8652521 94.8201353,20.687597 94.8201353,16.9993865 C94.8201353,13.312403 79.176426,6.13474793 50.499382,6.13474793 C21.823574,6.13474793 6.17986465,13.312403 6.17986465,16.9993865 Z M0,16.9993865 C0,5.83905308 25.4041876,0 50.499382,0 C75.5958124,0 101,5.83905308 101,16.9993865 C101,28.1609469 75.5958124,34 50.499382,34 C25.4041876,34 0,28.1609469 0,16.9993865 Z" id="Fill-15" fill="#050101"></path>
                </g>
            </g>
        </g>
    </g>
</svg>