<?xml version="1.0" encoding="UTF-8"?>
<svg width="103px" height="115px" viewBox="0 0 103 115" version="1.1" xmlns="http://www.w3.org/2000/svg" xmlns:xlink="http://www.w3.org/1999/xlink">
    <title>编组</title>
    <defs>
        <polygon id="path-1" points="0 0.145989899 102.4232 0.145989899 102.4232 96.7868939 0 96.7868939"></polygon>
    </defs>
    <g id="页面-1" stroke="none" stroke-width="1" fill="none" fill-rule="evenodd">
        <g id="主页-——-1440" transform="translate(-986.000000, -1008.000000)">
            <g id="编组" transform="translate(986.000000, 1008.000000)">
                <path d="M48.6173732,69 C46.2840257,66.5659233 45,63.3462398 45,59.9329138 C45,52.8012496 50.6544071,47 57.604575,47 C61.7588333,47 65.645138,49.0999681 68,52.6176404 L63.9699392,55.4590687 C62.5274884,53.3029142 60.1472001,52.0166461 57.604575,52.0166461 C53.3505676,52.0166461 49.8896637,55.5674283 49.8896637,59.9329138 C49.8896637,62.0218452 50.6749437,63.9933871 52.1027255,65.4823277 L48.6173732,69 Z" id="Fill-1" fill="#050101"></path>
                <polygon id="Fill-3" fill="#050101" points="64.6664777 50 60 49.2450148 65.3325775 14 70 14.7549852"></polygon>
                <polygon id="Fill-5" fill="#050101" points="52.1748112 50 42 14.3371351 46.8251888 13 57 48.6618767"></polygon>
                <polygon id="Fill-7" fill="#050101" points="48.4901664 54 23 27.4009804 26.5098336 24 52 50.5990196"></polygon>
                <polygon id="Fill-9" fill="#050101" points="46.9496646 58 12 50.6204777 13.0503354 46 48 53.3795223"></polygon>
                <polygon id="Fill-11" fill="#050101" points="15.2882447 71 14 66.1061857 46.712741 57 48 61.8948283"></polygon>
                <g>
                    <mask id="mask-2" fill="white">
                        <use xlink:href="#path-1"></use>
                    </mask>
                    <g id="Clip-14"></g>
                    <path d="M54.0733324,5.04840909 C44.1254943,5.04840909 34.2708467,8.74224747 24.70558,16.0691768 C13.1440752,24.9245909 6.57856095,35.530904 5.18953238,47.5951566 C3.00985619,66.5258333 14.1681895,84.1102677 18.2695514,89.8450253 L95.6019514,27.0311566 C91.2543705,21.9763788 77.7270371,7.94077273 59.6618181,5.43640909 C57.7970276,5.17774242 55.9332181,5.04840909 54.0733324,5.04840909 L54.0733324,5.04840909 Z M17.496561,96.7868939 L15.9476371,94.9086212 C15.1903419,93.9895707 -2.55606762,72.1420354 0.313218095,47.0690051 C1.85233238,33.6222576 9.05350381,21.8852576 21.7205419,12.1823182 C34.1668657,2.64790404 47.1762562,-1.25169192 60.3730086,0.588368687 C84.425961,3.94417677 100.357609,25.0264899 101.023675,25.9220253 L102.423494,27.8042172 L17.496561,96.7868939 Z" id="Fill-13" fill="#050101" mask="url(#mask-2)"></path>
                </g>
                <path d="M22.3953175,89 C21.7599002,88.2258481 6.85203366,69.8049538 9.26368656,48.6441499 C10.5599378,37.274897 16.6208409,27.354974 27.2762996,19.1626835 C37.7469985,11.1124842 48.6957267,7.81498927 59.8213942,9.37701212 C80.0511247,12.209036 93.4398552,29.9900301 94,30.7455631 L90.076054,33.6677414 L92.038027,32.2066522 L90.0780091,33.6697012 C89.9519033,33.5001718 77.3002568,16.7530134 59.1126596,14.2247706 C49.346785,12.867555 39.6346766,15.8367704 30.25103,23.0501017 C20.6875114,30.4035644 15.2600704,39.2014572 14.1202296,49.2017352 C11.9412371,68.3174063 26.0259939,85.7113245 26.1677409,85.8837938 L22.3953175,89 Z" id="Fill-15" fill="#050101"></path>
                <path d="M36.5203092,94 C36.5203092,94 30.4392155,103.622115 31.0420286,110.107424 C31.6458047,116.591767 41,116.382969 41,110.943584 C41,105.505165 36.5203092,94 36.5203092,94" id="Fill-17" fill="#A7D381"></path>
            </g>
        </g>
    </g>
</svg>