<?xml version="1.0" encoding="UTF-8"?>
<svg width="82px" height="116px" viewBox="0 0 82 116" version="1.1" xmlns="http://www.w3.org/2000/svg" xmlns:xlink="http://www.w3.org/1999/xlink">
    <title>编组</title>
    <defs>
        <polygon id="path-1" points="0.511737263 0.477983318 29.718 0.477983318 29.718 95.7266 0.511737263 95.7266"></polygon>
    </defs>
    <g id="页面-1" stroke="none" stroke-width="1" fill="none" fill-rule="evenodd">
        <g id="主页-——-1440" transform="translate(-572.000000, -1007.000000)">
            <g id="编组" transform="translate(572.000400, 1007.000000)">
                <path d="M40.8577,66.4899 C33.1767,66.4899 24.2057,64.7379 24.2057,59.8009 C24.2057,58.4199 25.3247,57.3009 26.7057,57.3009 C27.9247,57.3009 28.9397,58.1739 29.1607,59.3279 C30.1147,60.1259 34.2867,61.4899 40.8577,61.4899 C47.4297,61.4899 51.6017,60.1259 52.5567,59.3279 C52.7767,58.1739 53.7927,57.3009 55.0117,57.3009 C56.3927,57.3009 57.5117,58.4199 57.5117,59.8009 C57.5117,64.7379 48.5407,66.4899 40.8577,66.4899 L40.8577,66.4899 Z" id="Fill-1" fill="#050101"></path>
                <path d="M39.9264,115.877 C23.6344,115.877 6.0994,112.192 6.0994,104.103 C6.0994,102.722 7.2184,101.603 8.5994,101.603 C9.9804,101.603 11.0994,102.722 11.0994,104.103 C11.0994,106.129 20.9064,110.877 39.9264,110.877 C58.9454,110.877 68.7524,106.129 68.7524,104.103 C68.7524,102.722 69.8714,101.603 71.2524,101.603 C72.6334,101.603 73.7524,102.722 73.7524,104.103 C73.7524,112.192 56.2184,115.877 39.9264,115.877" id="Fill-3" fill="#050101"></path>
                <path d="M8.5982,106.6036 C8.2832,106.6036 7.9632,106.5436 7.6532,106.4166 C6.3752,105.8956 5.7622,104.4356 6.2852,103.1576 L23.9442,59.9486 L0.5162,16.5686 C-0.1388,15.3536 0.3142,13.8366 1.5292,13.1806 C2.7392,12.5246 4.2602,12.9776 4.9162,14.1926 L28.9062,58.6126 C29.2612,59.2706 29.3032,60.0546 29.0202,60.7466 L10.9132,105.0486 C10.5172,106.0176 9.5832,106.6036 8.5982,106.6036" id="Fill-5" fill="#050101"></path>
                <g transform="translate(51.999600, 10.877000)">
                    <mask id="mask-2" fill="white">
                        <use xlink:href="#path-1"></use>
                    </mask>
                    <g id="Clip-8"></g>
                    <path d="M19.2529,95.7266 C18.2339,95.7266 17.2769,95.0996 16.9049,94.0866 L0.6639,49.7846 C0.4209,49.1206 0.4709,48.3846 0.7999,47.7586 L25.0059,1.8136 C25.6489,0.5906 27.1629,0.1236 28.3829,0.7666 C29.6049,1.4106 30.0729,2.9226 29.4299,4.1436 L5.7409,49.1066 L21.6009,92.3656 C22.0749,93.6626 21.4099,95.0986 20.1129,95.5736 C19.8289,95.6776 19.5389,95.7266 19.2529,95.7266" id="Fill-7" fill="#050101" mask="url(#mask-2)"></path>
                </g>
                <path d="M20.2184,105.1485 C19.9124,105.1485 19.6014,105.0915 19.2984,104.9725 C18.0154,104.4635 17.3864,103.0115 17.8954,101.7275 L30.7814,69.1905 C31.2884,67.9075 32.7394,67.2785 34.0264,67.7875 C35.3094,68.2955 35.9384,69.7485 35.4294,71.0315 L22.5434,103.5685 C22.1554,104.5505 21.2134,105.1485 20.2184,105.1485" id="Fill-9" fill="#050101"></path>
                <path d="M54.3648,26.9874 C54.1918,26.9874 54.0168,26.9694 53.8428,26.9324 C52.4918,26.6454 51.6298,25.3184 51.9168,23.9674 L56.3098,3.2914 C56.5968,1.9394 57.9308,1.0804 59.2748,1.3654 C60.6258,1.6524 61.4878,2.9794 61.2008,4.3304 L56.8068,25.0064 C56.5568,26.1814 55.5188,26.9874 54.3648,26.9874" id="Fill-11" fill="#050101"></path>
                <path d="M28.8399,12.1756 C38.1619,12.1756 43.1759,18.0986 54.7739,17.9746 C66.3709,17.8496 76.9249,12.2356 76.9249,12.2356 C76.9249,12.2356 83.3639,17.9746 63.9149,22.2026 C44.4649,26.4306 42.7609,25.4766 36.8139,25.2116 C30.8669,24.9456 19.1369,24.0886 13.7879,22.3746 C8.4379,20.6606 5.9859,19.5596 5.9859,19.5596 C5.9859,19.5596 19.5199,12.1756 28.8399,12.1756 Z" id="Fill-13" fill-opacity="0.5" fill="#A5D07F"></path>
                <path d="M5,13.855 C5,16.861 17.657,22.711 40.858,22.711 C64.06,22.711 76.717,16.861 76.717,13.855 C76.717,10.85 64.06,5 40.858,5 C17.657,5 5,10.85 5,13.855 Z M0,13.855 C0,4.759 20.554,0 40.858,0 C61.163,0 81.717,4.759 81.717,13.855 C81.717,22.952 61.163,27.711 40.858,27.711 C20.554,27.711 0,22.952 0,13.855 Z" id="Fill-15" fill="#050101"></path>
            </g>
        </g>
    </g>
</svg>