<?xml version="1.0" encoding="UTF-8"?>
<svg width="102px" height="134px" viewBox="0 0 102 134" version="1.1" xmlns="http://www.w3.org/2000/svg" xmlns:xlink="http://www.w3.org/1999/xlink">
    <title>编组备份 2</title>
    <g id="页面-1" stroke="none" stroke-width="1" fill="none" fill-rule="evenodd" opacity="0.193492344">
        <g id="主页-——-1440" transform="translate(-402.000000, -957.000000)">
            <g id="编组" transform="translate(118.000000, 957.000000)">
                <g id="编组备份-2" transform="translate(284.000000, -8.000000)">
                    <path d="M17,39.4297105 C17,39.4297105 24.8192087,31 39.2199315,31 C53.619113,31 61.56317,36.7880054 71.9918643,37.039522 C77.4482015,37.170748 82.7195782,36.0084603 86.5035635,34.8680436 C89.2949269,34.0275721 92.0755011,36.1943639 91.9984342,39.1453874 L90.4879227,97.6831342 L87.0106637,103.093084 L78.4454474,105.734789 L46.6676777,108 L23.0821205,103.972611 L19.110092,98.4361216 L17.4947696,65.4733916 L17,39.4297105" id="Fill-1" fill-opacity="0.5" fill="#B4DB8C"></path>
                    <path d="M61.939837,77.2161509 L67.806763,77.9594026 L58.6339852,67.4427674 C58.4177594,67.1965184 58.1182467,67.0328529 57.7899038,66.9863058 L52.4915715,66.2040147 L61.939837,77.2161509 Z M71.9310695,83 C71.791724,83 71.6523785,82.9909909 71.5098296,82.9729727 L60.346173,81.5600438 C59.7375375,81.4834664 59.1817572,81.1891688 58.7957541,80.7402147 L45.644422,65.414216 C44.8884326,64.5313231 44.789129,63.3301084 45.3913578,62.3526199 C45.9919849,61.3796359 47.1564008,60.8601105 48.3352317,61.0327851 C48.3368333,61.0327851 48.338435,61.0327851 48.338435,61.0342867 L58.5330798,62.5358051 C60.0290419,62.7550268 61.3840567,63.4832633 62.3514668,64.5883808 L74.2967396,78.282229 C75.1071859,79.211669 75.2273113,80.4849566 74.6042607,81.5285119 C74.0548871,82.4504442 73.0362234,83 71.9310695,83 L71.9310695,83 Z" id="Fill-3" fill="#091D36"></path>
                    <path d="M35.5619519,75.4441308 L45.9033103,88.4275073 L57.5501821,78.9192864 L47.2299779,65.9633815 L35.5619519,75.4441308 Z M45.8882002,93 C45.714434,93 45.5391567,92.9893166 45.3638794,92.9679498 C44.1822689,92.8305919 43.1200283,92.2369004 42.3720779,91.2998141 L31.9914332,78.2660731 C30.4456691,76.3247478 30.7403162,73.4875435 32.6457009,71.9384513 L45.1311838,61.7922792 C46.6693928,60.5438482 48.9343981,60.7987235 50.1779601,62.3600253 L62.4987428,77.828054 C62.8749845,78.3027019 63.0517727,78.9055506 62.9867993,79.5099255 C62.9218258,80.1127741 62.6211346,80.6667844 62.1542323,81.0483342 L48.6624162,92.0094967 C47.8676245,92.6566052 46.8975555,93 45.8882002,93 L45.8882002,93 Z" id="Fill-5" fill="#091D36"></path>
                    <path d="M50.7465258,89.5595003 L56.4016927,90.2012494 C56.7634141,90.2491411 57.1159,90.1373938 57.3945024,89.9075135 L67.1702141,81.7499568 L61.1210018,80.9038697 L50.7465258,89.5595003 Z M56.5617736,95 C56.3447408,95 56.1230903,94.9872289 55.902979,94.963283 L46.8630239,93.9352074 C45.5700625,93.7899358 44.4972124,92.8560472 44.1293341,91.5581816 C43.7660735,90.2667014 44.1832075,88.8906126 45.1898703,88.0509111 L58.9983902,76.5265663 C59.4940254,76.1146975 60.120496,75.9359017 60.756202,76.0205104 L71.3261614,77.5003647 C72.5483178,77.6727749 73.5549806,78.5795248 73.8859172,79.8135348 C74.2168537,81.0411593 73.8135729,82.3501997 72.8607835,83.1483951 L60.2913516,93.6366823 C59.2277369,94.5258719 57.9224616,95 56.5617736,95 L56.5617736,95 Z" id="Fill-7" fill="#091D36"></path>
                    <path d="M6.53458289,13.0007774 C9.80264547,15.5536686 26.2555438,19.7810202 55.5,19.7810202 C84.7444562,19.7810202 101.197355,15.5536686 104.465417,13.0007774 C101.198897,10.4478861 84.7459984,6.21897985 55.5,6.21897985 C26.2540016,6.21897985 9.80110321,10.4478861 6.53458289,13.0007774 M55.5,26 C49.8182904,26 0,25.6361897 0,13.0007774 C0,0.363810321 49.8182904,0 55.5,0 C61.1817096,0 111,0.363810321 111,13.0007774 C111,25.6361897 61.1817096,26 55.5,26" id="Fill-9" fill="#050101"></path>
                    <path d="M55,142 C49.8828701,142 5,141.618848 5,128.379523 L11.1485489,128.379523 C11.1485489,128.180803 11.0962863,128.039092 11.0747664,128 C12.5365839,130.687609 28.465937,135.484584 55,135.484584 C81.534063,135.484584 97.4634161,130.687609 98.9252336,128 C98.9037137,128.039092 98.8514511,128.180803 98.8514511,128.379523 L105,128.379523 C105,141.618848 60.1171299,142 55,142" id="Fill-11" fill="#050101"></path>
                    <polygon id="Fill-13" fill="#050101" points="5.02771739 130 0 14.2733314 5.97228261 14 11 129.726669"></polygon>
                    <polygon id="Fill-15" fill="#050101" points="105.352941 130 99 129.712886 104.647059 14 111 14.2886489"></polygon>
                    <path d="M49.2392146,111 C35.949648,111 27.3961008,109.065005 22.394568,107.326631 C17.8823827,105.755228 14.7224637,101.428018 14.5325907,96.5593209 L12.0024943,31.2423223 C11.9345723,29.5195527 13.2621396,28.0683066 14.9663656,28.0012059 C16.6721353,27.9543916 18.1046731,29.2761179 18.1710514,30.997327 L20.7011478,96.3143256 C20.7906814,98.6300775 22.2787918,100.685229 24.4028995,101.421776 C29.5510822,103.213206 38.9304998,105.234028 54.3657857,104.661331 C70.037255,104.088635 79.6497688,102.039726 84.9554071,100.421508 C87.0054181,99.7957558 88.4194317,97.9060149 88.476548,95.7197828 L89.8272705,43.1035284 C89.8720373,41.3807589 91.3107499,39.9607223 92.9933643,40.0652745 C94.6975903,40.1089679 96.0436818,41.5414883 95.998915,43.2658183 L94.6481924,95.8820727 C94.5231541,100.766374 91.3431672,104.992153 86.7383609,106.398145 C81.0869376,108.122475 70.918698,110.304026 54.5896197,110.90169 C52.7279381,110.96723 50.9434406,111 49.2392146,111" id="Fill-17" fill="#050101"></path>
                </g>
            </g>
        </g>
    </g>
</svg>