<?xml version="1.0" encoding="UTF-8"?>
<svg width="90px" height="115px" viewBox="0 0 90 115" version="1.1" xmlns="http://www.w3.org/2000/svg" xmlns:xlink="http://www.w3.org/1999/xlink">
    <title>编组</title>
    <g id="页面-1" stroke="none" stroke-width="1" fill="none" fill-rule="evenodd">
        <g id="主页-——-1440" transform="translate(-157.000000, -1007.000000)">
            <g id="编组" transform="translate(157.000000, 1007.000000)">
                <path d="M14,31.7875591 C14,31.7875591 20.3596231,25 32.072211,25 C43.7835452,25 50.2447116,29.6604719 58.7267163,29.8629917 C63.1645373,29.9686543 67.4519236,29.0327862 70.529565,28.1145286 C72.7998739,27.4377853 75.0614075,29.1824748 74.9987264,31.5586236 L73.7701771,78.6929132 L70.9420065,83.0489764 L63.9756305,85.1760636 L38.1297112,87 L18.9467914,83.7571669 L15.7162082,79.2992148 L14.4024126,52.7577959 L14,31.7875591" id="Fill-1" fill="#84FFBE"></path>
                <path d="M50.5518696,62.2677599 L55.2454104,62.8758748 L47.9071882,54.2713551 C47.7342075,54.0698787 47.4945973,53.9359705 47.2319231,53.8978865 L42.9932572,53.2578302 L50.5518696,62.2677599 Z M58.5448556,67 C58.4333792,67 58.3219028,66.9926289 58.2078637,66.9778867 L49.2769384,65.821854 C48.79003,65.7591998 48.3454057,65.5184108 48.0366033,65.1510848 L37.5155376,52.6116312 C36.9107461,51.8892644 36.8313032,50.9064523 37.3130862,50.106689 C37.7935879,49.3106112 38.7251206,48.885545 39.6681853,49.0268242 C39.6694667,49.0268242 39.670748,49.0268242 39.670748,49.0280527 L47.8264639,50.2565678 C49.0232335,50.435931 50.1072454,51.0317608 50.8811735,51.9359479 L60.4373917,63.1400056 C61.0857487,63.9004564 61.181849,64.9422372 60.6834086,65.7960552 C60.2439097,66.5503635 59.4289788,67 58.5448556,67 L58.5448556,67 Z" id="Fill-3" fill="#091D36"></path>
                <path d="M28.7065859,60.7358563 L37.1089396,71.2848496 L46.572023,63.5594202 L38.186857,53.0327475 L28.7065859,60.7358563 Z M37.0966627,75 C36.9554776,75 36.8130648,74.9913197 36.670652,74.9739592 C35.7105935,74.8623559 34.847523,74.3799816 34.2398133,73.618599 L25.8055395,63.0286844 C24.5496061,61.4513576 24.7890069,59.1461291 26.337132,57.8874917 L36.4815868,49.6437268 C37.7313817,48.6293767 39.5716985,48.8364629 40.5820926,50.1050205 L50.5927285,62.6727938 C50.8984249,63.0584453 51.0420654,63.5482598 50.9892744,64.0393144 C50.9364835,64.529129 50.6921719,64.9792623 50.3128137,65.2892716 L39.3507131,74.1952161 C38.7049449,74.7209917 37.9167638,75 37.0966627,75 L37.0966627,75 Z" id="Fill-5" fill="#091D36"></path>
                <path d="M41.3972207,72.7048687 L45.9213542,73.2115127 C46.2107312,73.249322 46.49272,73.1611004 46.7156019,72.9796159 L54.5361713,66.5394396 L49.6968015,65.8714761 L41.3972207,72.7048687 Z M46.0494189,77 C45.8757927,77 45.6984723,76.9899175 45.5223832,76.9710129 L38.2904191,76.1593742 C37.25605,76.0446862 36.3977699,75.3074057 36.1034673,74.2827749 C35.8128588,73.2631853 36.146566,72.1767994 36.9518962,71.5138772 L47.9987122,62.4157102 C48.3952203,62.0905507 48.8963968,61.9493961 49.4049616,62.0161925 L57.8609292,63.1844984 C58.8386543,63.3206117 59.6439845,64.0364669 59.9087337,65.0106854 C60.173483,65.9798626 59.8508583,67.0133156 59.0886268,67.6434698 L49.0330813,75.9236966 C48.1821895,76.6256884 47.1379693,77 46.0494189,77 L46.0494189,77 Z" id="Fill-7" fill="#091D36"></path>
                <path d="M5.29831045,10.5006279 C7.94809092,12.5625785 21.2882788,15.9769778 45,15.9769778 C68.7117212,15.9769778 82.0519091,12.5625785 84.7016895,10.5006279 C82.0531596,8.43867727 68.7129717,5.02302219 45,5.02302219 C21.2870283,5.02302219 7.94684044,8.43867727 5.29831045,10.5006279 M45,21 C40.3932085,21 0,20.7061532 0,10.5006279 C0,0.293846798 40.3932085,0 45,0 C49.6067915,0 90,0.293846798 90,10.5006279 C90,20.7061532 49.6067915,21 45,21" id="Fill-9" fill="#050101"></path>
                <path d="M44.5,115 C40.3551248,115 4,114.700524 4,104.298197 L8.98032464,104.298197 C8.98032464,104.142059 8.93799188,104.030716 8.92056075,104 C10.1046329,106.111693 23.007409,109.880745 44.5,109.880745 C65.992591,109.880745 78.8953671,106.111693 80.0794393,104 C80.0620081,104.030716 80.0196754,104.142059 80.0196754,104.298197 L85,104.298197 C85,114.700524 48.6448752,115 44.5,115" id="Fill-11" fill="#050101"></path>
                <polygon id="Fill-13" fill="#050101" points="4.11358696 105 0 11.2214927 4.88641304 11 9 104.778507"></polygon>
                <polygon id="Fill-15" fill="#050101" points="85.2941176 105 80 104.767339 84.7058824 11 90 11.2339051"></polygon>
                <path d="M40.1460309,90 C29.3878103,90 22.4635101,88.4380162 18.4146503,87.0347502 C14.7619289,85.7662682 12.2038992,82.273219 12.0501925,78.3430663 L10.0020192,25.6172963 C9.94703471,24.2266269 11.0217321,23.055139 12.4013436,23.0009735 C13.7822048,22.9631835 14.9418782,24.0301192 14.9956131,25.419529 L17.0437863,78.145299 C17.1162659,80.0146408 18.3209267,81.6736188 20.0404425,82.2681803 C24.2080189,83.714275 31.8008808,85.3455403 44.2961122,84.8832435 C56.9825398,84.4209467 64.7640986,82.7670074 69.0591391,81.4607355 C70.7186718,80.9556101 71.8633495,79.4301566 71.9095864,77.6653669 L73.0030285,35.1920049 C73.0392683,33.8013355 74.2039404,32.6550409 75.5660568,32.7394384 C76.9456683,32.774709 78.0353615,33.9310809 77.9991217,35.32301 L76.9056796,77.7963719 C76.8044581,81.7391213 74.230183,85.1502923 70.5024827,86.2852499 C65.9275209,87.677179 57.6960889,89.4381897 44.4773112,89.9206411 C42.9702356,89.973547 41.5256424,90 40.1460309,90" id="Fill-17" fill="#050101"></path>
            </g>
        </g>
    </g>
</svg>