<?xml version="1.0" encoding="UTF-8"?>
<svg width="99px" height="132px" viewBox="0 0 99 132" version="1.1" xmlns="http://www.w3.org/2000/svg" xmlns:xlink="http://www.w3.org/1999/xlink">
    <title>编组备份 4</title>
    <defs>
        <polygon id="path-1" points="0 0.194151515 136.2328 0.194151515 136.2328 128.716591 0 128.716591"></polygon>
    </defs>
    <g id="页面-1" stroke="none" stroke-width="1" fill="none" fill-rule="evenodd" opacity="0.2">
        <g id="主页-——-1440" transform="translate(-1220.000000, -957.000000)">
            <g id="编组备份-4" transform="translate(933.000000, 957.000000)">
                <g transform="translate(287.000000, -21.000000)">
                    <path d="M64.8755899,92 C61.7306433,88.7914443 60,84.5473161 60,80.0479318 C60,70.6471017 67.6211574,63 76.988775,63 C82.5879927,63 87.8260555,65.7681397 91,70.4050714 L85.5681789,74.1505906 C83.6240061,71.3083869 80.4157915,69.6128517 76.988775,69.6128517 C71.2551129,69.6128517 66.5904163,74.2934282 66.5904163,80.0479318 C66.5904163,82.8015232 67.6488371,85.400374 69.5732387,87.3630684 L64.8755899,92 Z" id="Fill-1" fill="#050101"></path>
                    <polygon id="Fill-3" fill="#050101" points="86.066421 67 80 65.993353 86.9323507 19 93 20.006647"></polygon>
                    <polygon id="Fill-5" fill="#050101" points="69.5664149 66 56 18.7708005 62.4335851 17 76 64.2278907"></polygon>
                    <polygon id="Fill-7" fill="#050101" points="64.279879 72 30 36.5346405 34.720121 32 69 67.4653595"></polygon>
                    <polygon id="Fill-9" fill="#050101" points="62.5995528 77 16 67.1606369 17.4004472 61 64 70.8393631"></polygon>
                    <polygon id="Fill-11" fill="#050101" points="20.7050297 95 19 88.3583949 62.2962748 76 64 82.6429813"></polygon>
                    <g id="编组">
                        <mask id="mask-2" fill="white">
                            <use xlink:href="#path-1"></use>
                        </mask>
                        <g id="Clip-14"></g>
                        <path d="M71.9227819,6.71386364 C58.6911914,6.71386364 45.5835533,11.6262879 32.86082,21.3703485 C17.4828962,33.1471364 8.75012476,47.2524394 6.9025819,63.2966515 C4.00340095,88.4725 18.8450676,111.857985 24.3002771,119.484621 L127.159877,35.9486515 C121.377172,29.2263182 103.384506,10.5604091 79.3560105,7.22986364 C76.8756581,6.88586364 74.3966105,6.71386364 71.9227819,6.71386364 L71.9227819,6.71386364 Z M23.2721248,128.716591 L21.2119057,126.218682 C20.2046295,124.996439 -3.3998181,95.9414697 0.416610476,62.5969242 C2.4637819,44.7141364 12.042039,29.1051364 28.8904295,16.2012273 C45.4452486,3.52143939 62.749001,-1.66462121 80.3019629,0.782469697 C112.294725,5.24534848 133.485363,33.2826515 134.371296,34.4736212 L136.233191,36.9767424 L23.2721248,128.716591 Z" id="Fill-13" fill="#050101" mask="url(#mask-2)"></path>
                    </g>
                    <path d="M29.8078926,118 C28.9631614,116.974249 9.14446827,92.5665638 12.350548,64.5284986 C14.0737996,49.4642386 22.1312355,36.3203405 36.2967277,25.4655556 C50.216598,14.7990415 64.7719661,10.4298608 79.5625594,12.4995411 C106.456201,16.2519727 124.255337,39.8117899 125,40.8128711 L119.78346,44.6847573 L122.39173,42.7488142 L119.786059,44.6873542 C119.618413,44.4627276 102.799165,22.2727427 78.6203592,18.9228211 C65.6374907,17.1245104 52.7260995,21.0587207 40.2513692,30.6163848 C27.5375151,40.3597228 20.3222112,52.0169308 18.8068934,65.2672992 C15.9101153,90.5955634 34.6345567,113.642505 34.8229967,113.871027 L29.8078926,118 Z" id="Fill-15" fill="#050101"></path>
                    <path d="M48.1764019,125 C48.1764019,125 40.2709802,137.829487 41.0546372,146.476566 C41.839546,155.122356 54,154.843959 54,147.591445 C54,140.34022 48.1764019,125 48.1764019,125" id="Fill-17" fill="#ABD684"></path>
                </g>
            </g>
        </g>
    </g>
</svg>