<?xml version="1.0" encoding="UTF-8"?>
<svg width="58px" height="46px" viewBox="0 0 58 46" version="1.1" xmlns="http://www.w3.org/2000/svg" xmlns:xlink="http://www.w3.org/1999/xlink">
    <title>twitter</title>
    <defs>
        <filter id="filter-1">
            <feColorMatrix in="SourceGraphic" type="matrix" values="0 0 0 0 0.011765 0 0 0 0 0.227451 0 0 0 0 0.431373 0 0 0 1.000000 0"></feColorMatrix>
        </filter>
        <filter id="filter-2">
            <feColorMatrix in="SourceGraphic" type="matrix" values="0 0 0 0 1.000000 0 0 0 0 1.000000 0 0 0 0 1.000000 0 0 0 1.000000 0"></feColorMatrix>
        </filter>
    </defs>
    <g id="页面-1" stroke="none" stroke-width="1" fill="none" fill-rule="evenodd">
        <g id="编组-11" transform="translate(-1019.000000, -2918.000000)" filter="url(#filter-1)">
            <g transform="translate(40.000000, 2918.000000)" filter="url(#filter-2)" id="twitter">
                <g transform="translate(979.000000, 0.000000)">
                    <path d="M56.9907423,5.45614569 C55.3768069,7.8054473 53.4234206,9.80664743 51.1305831,11.4597461 C51.1552705,11.7940461 51.1676142,12.2970298 51.1676142,12.968697 C51.1676142,16.0847419 50.7093553,19.1931194 49.7928375,22.2938294 C48.8763196,25.3945395 47.4845704,28.3710371 45.6175898,31.2233224 C43.7506091,34.0756076 41.5272049,36.5981932 38.947377,38.7910791 C36.3675491,40.983965 33.2569433,42.7336733 29.6155596,44.040204 C25.9741758,45.3467347 22.0812896,46 17.9369011,46 C11.4040117,46 5.42504463,44.2625596 0,40.7876788 C0.842455742,40.882755 1.78211792,40.9302931 2.81898652,40.9302931 C8.2440312,40.9302931 13.0781225,39.2771944 17.3212603,35.9709972 C14.7908072,35.9219256 12.5242001,35.1490483 10.521439,33.6523653 C8.51867793,32.1556823 7.14390125,30.2449579 6.39710895,27.9201921 C7.19327591,28.039804 7.92926747,28.09961 8.60508363,28.09961 C9.64195223,28.09961 10.6664772,27.9677301 11.6786584,27.7039704 C8.97847975,27.1519152 6.74273182,25.8162483 4.97141462,23.6969697 C3.20009742,21.5776911 2.31443882,19.116445 2.31443882,16.3132313 L2.31443882,16.170617 C3.95306152,17.0815081 5.713578,17.5722239 7.59598828,17.6427642 C6.00365436,16.5877254 4.73842778,15.2106543 3.80030855,13.5115511 C2.86218932,11.8124479 2.39158676,9.96766338 2.38850088,7.97719769 C2.38850088,5.86712 2.91927886,3.91499146 3.98083482,2.12081207 C6.89702777,5.69076907 10.447377,8.54765475 14.6318824,10.6914691 C18.8163878,12.8352835 23.2940555,14.0268026 28.0648855,14.2660266 C27.8735585,13.3551355 27.7778951,12.4687802 27.7778951,11.6069607 C27.7778951,8.39583961 28.916599,5.65856589 31.1940068,3.39513953 C33.4714147,1.13171318 36.2255969,0 39.4565535,0 C42.8325484,0 45.6777652,1.22218888 47.9922041,3.66656664 C50.6214066,3.16358299 53.0932273,2.2296896 55.4076661,0.864886478 C54.5158357,3.61902857 52.8046939,5.75210853 50.2742407,7.26412637 C52.5177034,7.02490244 54.7596232,6.42530916 57,5.46534651 L56.9907423,5.45614569 Z" id="路径" fill="#000000" fill-rule="nonzero"></path>
                </g>
            </g>
        </g>
    </g>
</svg>