<?xml version="1.0" encoding="UTF-8"?>
<svg width="48px" height="46px" viewBox="0 0 48 46" version="1.1" xmlns="http://www.w3.org/2000/svg" xmlns:xlink="http://www.w3.org/1999/xlink">
    <title>medium-square-fill</title>
    <defs>
        <filter id="filter-1">
            <feColorMatrix in="SourceGraphic" type="matrix" values="0 0 0 0 0.011765 0 0 0 0 0.227451 0 0 0 0 0.431373 0 0 0 1.000000 0"></feColorMatrix>
        </filter>
        <filter id="filter-2">
            <feColorMatrix in="SourceGraphic" type="matrix" values="0 0 0 0 1.000000 0 0 0 0 1.000000 0 0 0 0 1.000000 0 0 0 1.000000 0"></feColorMatrix>
        </filter>
    </defs>
    <g id="页面-1" stroke="none" stroke-width="1" fill="none" fill-rule="evenodd">
        <g id="编组-11" transform="translate(-1238.000000, -2918.000000)" filter="url(#filter-1)">
            <g transform="translate(40.000000, 2918.000000)" filter="url(#filter-2)" id="medium-square-fill">
                <g transform="translate(1199.354839, 0.000000)">
                    <path d="M43.8051613,0 L1.48516129,0 C0.46741129,0 -0.35483871,0.82225 -0.35483871,1.84 L-0.35483871,44.16 C-0.35483871,45.17775 0.46741129,46 1.48516129,46 L43.8051613,46 C44.8229113,46 45.6451613,45.17775 45.6451613,44.16 L45.6451613,1.84 C45.6451613,0.82225 44.8229113,0 43.8051613,0 Z M37.3651613,11.82775 L35.0191613,14.076 C34.8121613,14.23125 34.7144113,14.48425 34.7546613,14.7315 L34.7546613,31.27425 C34.7144113,31.52725 34.8121613,31.78025 35.0191613,31.92975 L37.3191613,34.178 L37.3191613,34.67825 L25.7731613,34.67825 L25.7731613,34.201 L28.1479113,31.89525 C28.3836613,31.6595 28.3836613,31.5905 28.3836613,31.23975 L28.3836613,17.85375 L21.7711613,34.62075 L20.8799113,34.62075 L13.1864113,17.85375 L13.1864113,29.095 C13.1174113,29.5665 13.2841613,30.04375 13.6176613,30.383 L16.7111613,34.12625 L16.7111613,34.6265 L7.92516129,34.6265 L7.92516129,34.12625 L11.0186613,30.383 C11.3521613,30.04375 11.4959113,29.56075 11.4211613,29.095 L11.4211613,16.1 C11.4614113,15.73775 11.3234113,15.387 11.0474113,15.13975 L8.29891129,11.82775 L8.29891129,11.3275 L16.8376613,11.3275 L23.4271613,25.78875 L29.2289113,11.339 L37.3651613,11.339 L37.3651613,11.82775 Z" id="形状" fill="#000000" fill-rule="nonzero"></path>
                </g>
            </g>
        </g>
    </g>
</svg>