<?xml version="1.0" encoding="UTF-8"?>
<svg width="48px" height="46px" viewBox="0 0 48 46" version="1.1" xmlns="http://www.w3.org/2000/svg" xmlns:xlink="http://www.w3.org/1999/xlink">
    <title>github</title>
    <defs>
        <filter id="filter-1">
            <feColorMatrix in="SourceGraphic" type="matrix" values="0 0 0 0 0.011765 0 0 0 0 0.227451 0 0 0 0 0.431373 0 0 0 1.000000 0"></feColorMatrix>
        </filter>
        <filter id="filter-2">
            <feColorMatrix in="SourceGraphic" type="matrix" values="0 0 0 0 1.000000 0 0 0 0 1.000000 0 0 0 0 1.000000 0 0 0 1.000000 0"></feColorMatrix>
        </filter>
    </defs>
    <g id="页面-1" stroke="none" stroke-width="1" fill="none" fill-rule="evenodd">
        <g id="编组-11" transform="translate(-1339.000000, -2918.000000)" filter="url(#filter-1)">
            <g transform="translate(40.000000, 2918.000000)" filter="url(#filter-2)" id="github">
                <g transform="translate(1299.516129, 0.000000)">
                    <path d="M46.483871,23.5755925 C46.483871,28.7124521 44.989259,33.3319585 42.000035,37.4341116 C39.010811,41.5362646 35.1509265,44.3758137 30.4203816,45.9527589 C29.869529,46.0549198 29.4661795,45.9828833 29.2103333,45.7366493 C28.954487,45.4904154 28.8265639,45.1839327 28.8265639,44.8172012 L28.8265639,38.3417718 C28.8265639,36.356183 28.2965967,34.9036646 27.2366622,33.9842165 C28.398413,33.8610995 29.4439888,33.676424 30.3733895,33.43019 C31.3027901,33.183956 32.2609082,32.7844807 33.2477437,32.2317641 C34.2345792,31.6790475 35.0608582,30.9979748 35.7265806,30.1885461 C36.392303,29.3791174 36.932713,28.3051182 37.3478104,26.9665484 C37.7629078,25.6279787 37.9717619,24.0877067 37.9743726,22.3457323 C37.9743726,19.8702951 37.1689791,17.7628991 35.558192,16.0235443 C36.3126774,14.1610725 36.2317464,12.0733229 35.3153991,9.76029529 C34.7436611,9.57692958 33.9173821,9.68956852 32.8365622,10.0982121 C31.7557424,10.5068557 30.8172044,10.9574115 30.0209482,11.4498794 L28.857892,12.1846521 C26.9599306,11.6528915 25.0019236,11.3870112 22.983871,11.3870112 C20.9658185,11.3870112 19.0078115,11.6528915 17.1098501,12.1846521 C16.7835156,11.9593742 16.3501433,11.6830158 15.8097334,11.355577 C15.2693234,11.0281383 14.4182431,10.633902 13.2564923,10.1728682 C12.0947415,9.71183435 11.2175543,9.57431006 10.6249309,9.76029529 C9.72685833,12.0733229 9.65506474,14.1610725 10.4095501,16.0235443 C8.79876302,17.7628991 7.99336948,19.8702951 7.99336948,22.3457323 C7.99336948,24.0850872 8.20222356,25.6201202 8.61993171,26.9508314 C9.03763986,28.2815426 9.57282843,29.3555419 10.2254974,30.172829 C10.8781664,30.9901162 11.699224,31.6751182 12.6886702,32.2278348 C13.6781164,32.7805515 14.6362345,33.1800268 15.5630245,33.4262608 C16.4898144,33.6724947 17.5353902,33.8571702 18.6997517,33.9802872 C17.8852208,34.7163696 17.3852763,35.7707225 17.1999183,37.1433458 C16.7717675,37.3476676 16.3122885,37.500909 15.8214814,37.6030699 C15.3306743,37.7052308 14.7497989,37.7563112 14.0788552,37.7563112 C13.4079115,37.7563112 12.7395784,37.5362723 12.073856,37.0961946 C11.4081336,36.6561169 10.841617,36.0169564 10.374306,35.1787131 C9.98792592,34.5238356 9.49320282,33.992075 8.89013667,33.5834314 C8.28707051,33.1747877 7.7819047,32.9298635 7.37463924,32.8486587 L6.76374104,32.7582856 C6.33559017,32.7582856 6.03927843,32.8041271 5.87480585,32.8958099 C5.71033326,32.9874928 5.65942509,33.1053707 5.72208132,33.2494438 C5.78473756,33.3935168 5.87611122,33.5362802 5.9962023,33.6777337 C6.11629338,33.8191872 6.24943785,33.9423042 6.39563571,34.0470847 L6.61101647,34.200326 C7.06005272,34.4046478 7.50386763,34.7936451 7.9424612,35.3673178 C8.38105476,35.9409906 8.70216791,36.4622731 8.90580065,36.9311655 L9.21124974,37.6384332 C9.47753868,38.4164278 9.92657495,39.0451102 10.5583586,39.5244806 C11.1901422,40.0038509 11.8728339,40.3103336 12.6064339,40.4439287 C13.3400338,40.5775238 14.0488323,40.6495603 14.7328294,40.6600383 C15.4168266,40.6705163 15.9833432,40.6351529 16.4323795,40.5539481 L17.137262,40.4321409 C17.137262,41.2101355 17.1424833,42.1204153 17.152926,43.1629804 C17.1633687,44.2055454 17.1685901,44.7582621 17.1685901,44.8211304 C17.1685901,45.1904813 17.0354456,45.496964 16.7691567,45.7405785 C16.5028677,45.984193 16.0956023,46.0562295 15.5473603,45.9566881 C10.8168154,44.3797429 6.95693098,41.5401938 3.96770695,37.4380407 C0.978482927,33.3358877 -0.516129032,28.7163813 -0.516129032,23.5795217 C-0.516129032,19.3018614 0.534668053,15.3568789 2.63626222,11.7445743 C4.73785639,8.13226962 7.58871457,5.27176441 11.1888368,3.16305865 C14.7889589,1.05435288 18.720637,0 22.983871,0 C27.2471048,0 31.1787828,1.05435288 34.778905,3.16305865 C38.3790272,5.27176441 41.2298854,8.13226962 43.3314796,11.7445743 C45.4330737,15.3568789 46.483871,19.3018614 46.483871,23.5795217 L46.483871,23.5755925 Z" id="路径" fill="#000000" fill-rule="nonzero"></path>
                </g>
            </g>
        </g>
    </g>
</svg>