<?xml version="1.0" encoding="UTF-8"?>
<svg width="135px" height="151px" viewBox="0 0 135 151" version="1.1" xmlns="http://www.w3.org/2000/svg" xmlns:xlink="http://www.w3.org/1999/xlink">
    <title>编组</title>
    <defs>
        <polygon id="path-1" points="0 0 21.1678375 0 21.1678375 18.6920017 0 18.6920017"></polygon>
        <polygon id="path-3" points="1.77635684e-15 0 70.2394075 0 70.2394075 23.6316 1.77635684e-15 23.6316"></polygon>
    </defs>
    <g id="页面-1" stroke="none" stroke-width="1" fill="none" fill-rule="evenodd">
        <g id="主页-——-1440" transform="translate(-1014.000000, -1797.000000)">
            <g id="编组" transform="translate(1014.000000, 1797.000000)">
                <path d="M15.9059,25.2683 C15.9059,25.2683 28.7229,20.5473 40.4929,23.3423 C52.2639,26.1383 63.3889,30.6683 63.3889,30.6683 L78.3229,9.2373 C78.3229,9.2373 61.7639,-1.0017 47.6489,1.5923 C33.5329,4.1863 17.7739,12.3533 13.4439,21.9123 C9.1139,31.4723 15.9059,25.2683 15.9059,25.2683" id="Fill-1" fill="#266EB9"></path>
                <path d="M119.7564,95.7285 C119.7564,95.7285 118.6484,82.1145 111.1614,72.6125 C103.6744,63.1095 94.8854,54.9215 94.8854,54.9215 L108.0464,32.3585 C108.0464,32.3585 124.3004,43.0745 127.8844,56.9715 C131.4674,70.8685 130.6874,88.6015 123.8364,96.5505 C116.9854,104.5005 119.7564,95.7285 119.7564,95.7285" id="Fill-3" fill="#266EB9"></path>
                <g transform="translate(0.000000, 131.590498)">
                    <mask id="mask-2" fill="white">
                        <use xlink:href="#path-1"></use>
                    </mask>
                    <g id="Clip-6"></g>
                    <path d="M6.8939,5.0030017 C6.0529,5.0030017 5.4039,5.2080017 5.1539,5.5670017 C4.4919,6.5180017 5.6539,9.4640017 8.9149,11.7360017 C10.5259,12.8580017 12.3289,13.5660017 13.8609,13.6780017 C14.8889,13.7490017 15.7159,13.5430017 16.0039,13.1290017 L16.0049,13.1280017 C16.2929,12.7140017 16.2069,11.8700017 15.7779,10.9260017 C15.1429,9.5270017 13.8549,8.0810017 12.2449,6.9600017 C10.6329,5.8370017 8.8309,5.1290017 7.2989,5.0180017 C7.1599,5.0080017 7.0249,5.0030017 6.8939,5.0030017 M14.2519,18.6920017 C14.0039,18.6920017 13.7529,18.6840017 13.4979,18.6640017 C11.0599,18.4870017 8.4159,17.4830017 6.0559,15.8380017 C0.7139,12.1160017 -1.4841,6.3490017 1.0509,2.7090017 C2.3829,0.797001698 4.7879,-0.191998302 7.6629,0.0310016981 C10.0999,0.208001698 12.7429,1.2120017 15.1029,2.8570017 C17.4629,4.5010017 19.3199,6.6330017 20.3309,8.8580017 C21.5199,11.4780017 21.4389,14.0760017 20.1079,15.9860017 C18.8949,17.7280017 16.7879,18.6920017 14.2519,18.6920017" id="Fill-5" fill="#231916" mask="url(#mask-2)"></path>
                </g>
                <path d="M3.1302,138.1863 C2.6362,138.1863 2.1382,138.0403 1.7022,137.7373 C0.5692,136.9483 0.2912,135.3893 1.0812,134.2563 L64.7642,42.8713 C65.5532,41.7373 67.1122,41.4593 68.2442,42.2493 C69.3772,43.0393 69.6552,44.5973 68.8652,45.7303 L5.1832,137.1163 C4.6972,137.8133 3.9202,138.1863 3.1302,138.1863" id="Fill-7" fill="#231916"></path>
                <path d="M18.0834,148.6062 C17.5934,148.6062 17.0974,148.4622 16.6634,148.1632 C15.5274,147.3772 15.2434,145.8202 16.0284,144.6842 L79.4104,53.0172 C80.1954,51.8802 81.7534,51.5972 82.8894,52.3822 C84.0244,53.1682 84.3094,54.7252 83.5234,55.8612 L20.1424,147.5282 C19.6564,148.2302 18.8764,148.6062 18.0834,148.6062" id="Fill-9" fill="#231916"></path>
                <path d="M71.3276,20.2891 C71.3276,20.2891 60.0626,10.3051 38.4296,10.7351 C27.5146,10.9521 18.9386,16.0931 13.1196,21.1341 C10.7026,23.2281 12.8826,27.1611 15.9416,26.2301 C22.7066,24.1711 31.6386,22.5751 40.5296,24.3041 C58.5336,27.8061 63.4246,31.6301 63.4246,31.6301" id="Fill-11" fill="#1A5592"></path>
                <path d="M63.4222,34.1297 C62.8842,34.1297 62.3412,33.9567 61.8842,33.5997 C61.8642,33.5857 56.9032,30.0347 40.0522,26.7587 C31.3502,25.0667 22.5312,26.8377 16.6692,28.6217 C14.1782,29.3797 11.5522,28.3127 10.2862,26.0227 C9.0032,23.6997 9.4842,20.9767 11.4832,19.2447 C19.5772,12.2317 28.8792,8.4247 38.3802,8.2357 C38.8572,8.2267 39.3312,8.2217 39.7972,8.2217 C61.2322,8.2217 72.5062,17.9927 72.9852,18.4177 C74.0192,19.3337 74.1142,20.9137 73.1982,21.9467 C72.2842,22.9787 70.7082,23.0737 69.6742,22.1647 C69.5132,22.0247 58.7122,12.8677 38.4802,13.2337 C27.9702,13.4427 19.7772,18.6737 14.7562,23.0247 C14.6652,23.1037 14.4772,23.2667 14.6632,23.6047 C14.8542,23.9497 15.0972,23.8757 15.2132,23.8387 C24.5312,21.0027 33.2092,20.3357 41.0072,21.8507 C59.0782,25.3647 64.4152,29.2317 64.9642,29.6597 C66.0522,30.5107 66.2442,32.0817 65.3942,33.1697 C64.9012,33.8007 64.1652,34.1297 63.4222,34.1297" id="Fill-13" fill="#231916"></path>
                <g transform="translate(10.619343, 0.000000)">
                    <mask id="mask-4" fill="white">
                        <use xlink:href="#path-3"></use>
                    </mask>
                    <g id="Clip-16"></g>
                    <path d="M2.49725733,23.6316 C2.07225733,23.6316 1.64325733,23.5236 1.24925733,23.2956 C0.057257332,22.6056 -0.354742668,21.0816 0.333257332,19.8876 C0.739257332,19.1826 10.5302573,2.5926 33.0772573,0.3296 C55.1472573,-1.8874 68.6492573,7.7686 69.2132573,8.1796 C70.3282573,8.9936 70.5722573,10.5576 69.7592573,11.6726 C68.9432573,12.7876 67.3792573,13.0296 66.2662573,12.2186 C66.1462573,12.1326 53.6412573,3.2976 33.5772573,5.3046 C13.6632573,7.3036 5.02125733,21.7726 4.66425733,22.3876 C4.19925733,23.1856 3.35925733,23.6316 2.49725733,23.6316" id="Fill-15" fill="#231916" mask="url(#mask-4)"></path>
                </g>
                <path d="M102.4412,41.9708 C102.4412,41.9708 115.7082,49.0818 122.7952,69.5258 C125.9452,78.6118 124.8822,87.3188 122.7292,94.1878 C121.5882,97.8258 116.2132,97.2518 115.8512,93.4568 C115.2212,86.8698 113.4922,79.0978 109.3382,72.2548 C99.8192,56.5758 94.5382,53.3118 94.5382,53.3118" id="Fill-17" fill="#1A5592"></path>
                <path d="M119.431,99.1326 C119.204,99.1326 118.976,99.1206 118.744,99.0966 C115.85,98.7936 113.637,96.5716 113.363,93.6946 C112.61,85.8226 110.536,79.0456 107.202,73.5526 C98.244,58.7996 93.272,55.4676 93.224,55.4386 C92.049,54.7116 91.686,53.1716 92.411,51.9966 C93.139,50.8216 94.683,50.4606 95.853,51.1846 C96.446,51.5516 101.921,55.2196 111.475,70.9566 C115.205,77.1006 117.514,84.5906 118.339,93.2186 C118.408,93.9286 118.949,94.0906 119.265,94.1236 C119.639,94.1606 120.143,94.0766 120.343,93.4396 C122.894,85.3026 122.924,77.5316 120.433,70.3446 C113.789,51.1786 101.377,44.2376 101.252,44.1696 C100.042,43.5116 99.59,41.9956 100.245,40.7836 C100.9,39.5726 102.407,39.1156 103.621,39.7676 C104.199,40.0756 117.834,47.5826 125.158,68.7076 C128.007,76.9286 127.993,85.7526 125.115,94.9356 C124.307,97.5106 122.071,99.1326 119.431,99.1326" id="Fill-19" fill="#231916"></path>
                <path d="M120.0638,99.5213 C119.3628,99.5213 118.6668,99.2283 118.1718,98.6573 C117.2688,97.6123 117.3828,96.0333 118.4268,95.1303 C119.0718,94.5693 134.2138,81.0973 127.7838,62.5463 C121.0588,43.1483 108.8318,35.1753 108.7088,35.0963 C107.5438,34.3543 107.2028,32.8083 107.9458,31.6443 C108.6878,30.4803 110.2318,30.1393 111.3978,30.8813 C111.9588,31.2393 125.2198,39.8853 132.5078,60.9103 C140.0628,82.7053 122.4518,98.2603 121.6988,98.9123 C121.2258,99.3213 120.6428,99.5213 120.0638,99.5213" id="Fill-21" fill="#231916"></path>
                <polygon id="Fill-23" fill="#D3EADD" points="89.6738 60.2921 58.5598 38.6101 73.6438 16.9651 104.7578 38.6461"></polygon>
                <path d="M62.0404,37.9881 L89.0524,56.8111 L101.2764,39.2681 L74.2664,20.4451 L62.0404,37.9881 Z M89.6744,62.7921 C89.1664,62.7921 88.6674,62.6371 88.2444,62.3421 L57.1304,40.6611 C56.5864,40.2821 56.2154,39.7031 56.0994,39.0501 C55.9814,38.3971 56.1294,37.7241 56.5094,37.1801 L71.5934,15.5351 C72.3824,14.4011 73.9404,14.1241 75.0734,14.9141 L106.1864,36.5951 C107.3194,37.3841 107.5984,38.9431 106.8084,40.0761 L91.7254,61.7211 C91.3464,62.2651 90.7674,62.6361 90.1134,62.7531 C89.9684,62.7791 89.8204,62.7921 89.6744,62.7921 L89.6744,62.7921 Z" id="Fill-25" fill="#231916"></path>
                <polygon id="Fill-27" fill="#E1EFE6" points="105.1187 38.1285 74.0047 16.4465 80.6327 6.9365 111.7457 28.6185"></polygon>
                <path d="M77.4857,15.825 L104.4967,34.648 L108.2657,29.24 L81.2547,10.417 L77.4857,15.825 Z M105.7407,41.609 L70.5247,17.069 L80.0097,3.456 L115.2267,27.996 L105.7407,41.609 Z" id="Fill-29" fill="#231916"></path>
            </g>
        </g>
    </g>
</svg>