<?xml version="1.0" encoding="UTF-8"?>
<svg width="138px" height="165px" viewBox="0 0 138 165" version="1.1" xmlns="http://www.w3.org/2000/svg" xmlns:xlink="http://www.w3.org/1999/xlink">
    <title>编组</title>
    <defs>
        <polygon id="path-1" points="0 164.434 137.248 164.434 137.248 0 0 0"></polygon>
    </defs>
    <g id="页面-1" stroke="none" stroke-width="1" fill="none" fill-rule="evenodd">
        <g id="主页-——-1440" transform="translate(-311.000000, -1788.000000)">
            <g id="编组" transform="translate(311.000000, 1788.000000)">
                <path d="M50.6465,27.3471 C23.7465,27.3471 5.0005,35.2301 5.0005,42.3041 C5.0005,49.3781 23.7465,57.2611 50.6465,57.2611 C77.5465,57.2611 96.2935,49.3781 96.2935,42.3041 C96.2935,35.2301 77.5465,27.3471 50.6465,27.3471 M50.6465,62.2611 C21.7735,62.2611 0.0005,53.6811 0.0005,42.3041 C0.0005,30.9271 21.7735,22.3471 50.6465,22.3471 C79.5205,22.3471 101.2935,30.9271 101.2935,42.3041 C101.2935,53.6811 79.5205,62.2611 50.6465,62.2611" id="Fill-1" fill="#231916"></path>
                <path d="M50.6465,164.434 C21.7735,164.434 0.0005,155.855 0.0005,144.478 L5.0005,144.478 C5.0005,151.552 23.7465,159.434 50.6465,159.434 C77.5465,159.434 96.2935,151.552 96.2935,144.478 L101.2935,144.478 C101.2935,155.855 79.5205,164.434 50.6465,164.434" id="Fill-3" fill="#231916"></path>
                <mask id="mask-2" fill="white">
                    <use xlink:href="#path-1"></use>
                </mask>
                <g id="Clip-6"></g>
                <polygon id="Fill-5" fill="#231916" mask="url(#mask-2)" points="0 144.478 5 144.478 5 42.304 0 42.304"></polygon>
                <polygon id="Fill-7" fill="#231916" mask="url(#mask-2)" points="96.293 144.478 101.293 144.478 101.293 42.304 96.293 42.304"></polygon>
                <path d="M89.5152,140.8832 C89.5152,147.6892 72.1132,153.2062 50.6462,153.2062 C29.1802,153.2062 11.7782,147.6892 11.7782,140.8832 C11.7782,134.0772 29.1802,128.5602 50.6462,128.5602 C72.1132,128.5602 89.5152,134.0772 89.5152,140.8832" id="Fill-8" fill="#D3EADD" mask="url(#mask-2)"></path>
                <polygon id="Fill-9" fill="#D3EADD" mask="url(#mask-2)" points="11.778 140.883 89.515 140.883 89.515 85.448 11.778 85.448"></polygon>
                <path d="M11.7779,85.4485 C11.7779,85.4485 13.0079,74.1665 31.0279,74.1665 C49.0479,74.1665 49.3009,85.1085 69.0099,85.1085 C88.7189,85.1085 89.5149,73.6225 89.5149,73.6225 L89.5149,85.4485" id="Fill-10" fill="#D3EADD" mask="url(#mask-2)"></path>
                <path d="M25.2588,127.351 L32.8108,131.628 L40.2758,127.363 L32.7248,122.819 L25.2588,127.351 Z M32.8138,134.854 C32.5588,134.854 32.3038,134.789 32.0748,134.66 L21.5548,128.702 C21.0918,128.439 20.8028,127.951 20.7946295,127.418 C20.7868,126.886 21.0608,126.39 21.5158,126.114 L31.9428,119.784 C32.4188,119.494 33.0178,119.493 33.4948,119.781 L44.0138,126.111 C44.4698,126.385 44.7458,126.88 44.7398959,127.413 C44.7338,127.945 44.4468,128.434 43.9848,128.699 L33.5578,134.657 C33.3278,134.788 33.0708,134.854 32.8138,134.854 L32.8138,134.854 Z" id="Fill-11" fill="#FEFEFE" mask="url(#mask-2)"></path>
                <path d="M32.814,145.9779 C32.559,145.9779 32.304,145.9139 32.075,145.7839 L21.555,139.8259 C20.835,139.4159 20.581,138.5009 20.989,137.7809 C21.397,137.0599 22.314,136.8069 23.034,137.2139 L32.811,142.7519 L42.496,137.2169 C43.216,136.8069 44.132,137.0569 44.543,137.7759 C44.954,138.4949 44.704,139.4119 43.984,139.8229 L33.558,145.7809 C33.328,145.9129 33.071,145.9779 32.814,145.9779" id="Fill-12" fill="#FEFEFE" mask="url(#mask-2)"></path>
                <path d="M32.814,145.9779 C31.985,145.9779 31.314,145.3059 31.314,144.4779 L31.314,133.3539 C31.314,132.5259 31.985,131.8539 32.814,131.8539 C33.643,131.8539 34.314,132.5259 34.314,133.3539 L34.314,144.4779 C34.314,145.3059 33.643,145.9779 32.814,145.9779" id="Fill-13" fill="#FEFEFE" mask="url(#mask-2)"></path>
                <path d="M43.2402,140.0199 C42.4112,140.0199 41.7402,139.3479 41.7402,138.5199 L41.7402,127.2089 C41.7402,126.3809 42.4112,125.7089 43.2402,125.7089 C44.0692,125.7089 44.7402,126.3809 44.7402,127.2089 L44.7402,138.5199 C44.7402,139.3479 44.0692,140.0199 43.2402,140.0199" id="Fill-14" fill="#FEFEFE" mask="url(#mask-2)"></path>
                <path d="M22.2944,139.8334 C21.4654,139.8334 20.7944,139.1614 20.7944,138.3334 L20.7944,127.2094 C20.7944,126.3814 21.4654,125.7094 22.2944,125.7094 C23.1234,125.7094 23.7944,126.3814 23.7944,127.2094 L23.7944,138.3334 C23.7944,139.1614 23.1234,139.8334 22.2944,139.8334" id="Fill-15" fill="#FEFEFE" mask="url(#mask-2)"></path>
                <path d="M69.3638,114.9613 L77.6588,117.2243 L75.5328,108.6713 L67.0488,106.5973 L69.3638,114.9613 Z M79.7318,120.8443 C79.5998,120.8443 79.4678,120.8263 79.3368,120.7913 L67.7518,117.6313 C67.2408,117.4913 66.8418,117.0943 66.6998,116.5843 L63.4748,104.9333 C63.3338,104.4203 63.4738,103.8703 63.8438,103.4873 C64.2148,103.1073 64.7598,102.9463 65.2768,103.0753 L77.1258,105.9723 C77.6678,106.1043 78.0908,106.5253 78.2248,107.0663 L81.1868,118.9823 C81.3158,119.4983 81.1608,120.0443 80.7808,120.4163 C80.4958,120.6943 80.1178,120.8443 79.7318,120.8443 L79.7318,120.8443 Z" id="Fill-16" fill="#FEFEFE" mask="url(#mask-2)"></path>
                <path d="M71.8667,128.7094 C71.7357,128.7094 71.6027,128.6924 71.4707,128.6564 L59.8857,125.4974 C59.3747,125.3574 58.9757,124.9604 58.8347,124.4504 L55.6087,112.7994 C55.3877,112.0004 55.8557,111.1744 56.6547,110.9534 C57.4507,110.7334 58.2797,111.1994 58.5007,111.9984 L61.4977,122.8274 L72.2607,125.7624 C73.0597,125.9804 73.5307,126.8054 73.3127,127.6044 C73.1307,128.2714 72.5267,128.7094 71.8667,128.7094" id="Fill-17" fill="#FEFEFE" mask="url(#mask-2)"></path>
                <path d="M60.2803,125.5502 C59.8963,125.5502 59.5123,125.4042 59.2193,125.1112 C58.6343,124.5252 58.6343,123.5752 59.2193,122.9892 L67.0853,115.1232 C67.6713,114.5372 68.6203,114.5372 69.2063,115.1232 C69.7923,115.7092 69.7923,116.6582 69.2063,117.2442 L61.3413,125.1112 C61.0483,125.4042 60.6643,125.5502 60.2803,125.5502" id="Fill-18" fill="#FEFEFE" mask="url(#mask-2)"></path>
                <path d="M71.8657,128.7094 C71.4817,128.7094 71.0977,128.5634 70.8047,128.2704 C70.2197,127.6844 70.2197,126.7344 70.8047,126.1484 L78.8027,118.1514 C79.3887,117.5654 80.3377,117.5654 80.9237,118.1514 C81.5097,118.7374 81.5097,119.6874 80.9237,120.2724 L72.9267,128.2704 C72.6337,128.5634 72.2497,128.7094 71.8657,128.7094" id="Fill-19" fill="#FEFEFE" mask="url(#mask-2)"></path>
                <path d="M57.1865,113.767 C56.8025,113.767 56.4185,113.621 56.1255,113.328 C55.5405,112.742 55.5405,111.792 56.1255,111.206 L63.9915,103.341 C64.5775,102.755 65.5265,102.755 66.1125,103.341 C66.6985,103.927 66.6985,104.876 66.1125,105.462 L58.2475,113.328 C57.9545,113.621 57.5705,113.767 57.1865,113.767" id="Fill-20" fill="#FEFEFE" mask="url(#mask-2)"></path>
                <path d="M39.0298,92.5473 L47.3248,94.8093 L45.1978,86.2573 L36.7148,84.1833 L39.0298,92.5473 Z M49.3978,98.4293 C49.2658,98.4293 49.1338,98.4113 49.0028,98.3763 L37.4178,95.2173 C36.9068,95.0773 36.5078,94.6803 36.3658,94.1703 L33.1408,82.5193 C32.9988,82.0063 33.1388,81.4563 33.5098,81.0733 C33.8808,80.6933 34.4258,80.5323 34.9428,80.6613 L46.7908,83.5583 C47.3328,83.6903 47.7568,84.1113 47.8908,84.6523 L50.8528,96.5673 C50.9818,97.0833 50.8268,97.6293 50.4468,98.0013 C50.1618,98.2793 49.7838,98.4293 49.3978,98.4293 L49.3978,98.4293 Z" id="Fill-21" fill="#FEFEFE" mask="url(#mask-2)"></path>
                <path d="M41.5327,106.2953 C41.4017,106.2953 41.2687,106.2783 41.1367,106.2423 L29.5517,103.0823 C29.0407,102.9423 28.6417,102.5453 28.5007,102.0353 L25.2747,90.3843 C25.0537,89.5853 25.5217,88.7593 26.3207,88.5383 C27.1187,88.3163 27.9457,88.7853 28.1667,89.5833 L31.1637,100.4123 L41.9267,103.3483 C42.7257,103.5663 43.1967,104.3913 42.9787,105.1903 C42.7967,105.8573 42.1927,106.2953 41.5327,106.2953" id="Fill-22" fill="#FEFEFE" mask="url(#mask-2)"></path>
                <path d="M29.9463,103.1352 C29.5623,103.1352 29.1783,102.9892 28.8853,102.6962 C28.3003,102.1102 28.3003,101.1602 28.8853,100.5742 L36.7513,92.7092 C37.3373,92.1232 38.2863,92.1232 38.8723,92.7092 C39.4583,93.2952 39.4583,94.2442 38.8723,94.8302 L31.0073,102.6962 C30.7143,102.9892 30.3303,103.1352 29.9463,103.1352" id="Fill-23" fill="#FEFEFE" mask="url(#mask-2)"></path>
                <path d="M41.5317,106.2953 C41.1477,106.2953 40.7637,106.1493 40.4707,105.8563 C39.8857,105.2703 39.8857,104.3203 40.4707,103.7343 L48.4687,95.7363 C49.0547,95.1503 50.0037,95.1503 50.5897,95.7363 C51.1757,96.3223 51.1757,97.2723 50.5897,97.8573 L42.5927,105.8563 C42.2997,106.1493 41.9157,106.2953 41.5317,106.2953" id="Fill-24" fill="#FEFEFE" mask="url(#mask-2)"></path>
                <path d="M26.8525,91.352 C26.4685,91.352 26.0845,91.206 25.7915,90.913 C25.2065,90.327 25.2065,89.377 25.7915,88.791 L33.6575,80.926 C34.2435,80.34 35.1925,80.34 35.7785,80.926 C36.3645,81.512 36.3645,82.461 35.7785,83.047 L27.9135,90.913 C27.6205,91.206 27.2365,91.352 26.8525,91.352" id="Fill-25" fill="#FEFEFE" mask="url(#mask-2)"></path>
                <path d="M60.7792,80.2838 C59.8182,80.2268 59.1152,81.1598 59.4182,82.0748 C60.3112,84.7768 62.3332,89.8108 65.7922,92.9908 C69.2262,96.1458 74.3692,96.4048 77.1562,96.2738 C78.1252,96.2278 78.7412,95.2268 78.3322,94.3468 C76.9752,91.4278 75.9092,88.2928 72.3802,84.7638 C70.1242,82.5078 63.8032,80.4618 60.7792,80.2838" id="Fill-26" fill="#82C26F" mask="url(#mask-2)"></path>
                <path d="M66.327,134.7476 C66.37,134.0216 65.665,133.4916 64.975,133.7196 C62.934,134.3946 59.132,135.9206 56.731,138.5336 C54.348,141.1266 54.153,145.0106 54.252,147.1156 C54.286,147.8476 55.042,148.3126 55.707,148.0036 C57.911,146.9786 60.279,146.1736 62.944,143.5086 C64.648,141.8046 66.193,137.0316 66.327,134.7476" id="Fill-27" fill="#82C26F" mask="url(#mask-2)"></path>
                <path d="M29.9444,109.1595 C29.9874,108.4335 29.2824,107.9035 28.5924,108.1315 C26.5514,108.8065 22.7494,110.3325 20.3484,112.9455 C17.9654,115.5385 17.7704,119.4225 17.8694,121.5275 C17.9034,122.2595 18.6594,122.7245 19.3244,122.4155 C21.5284,121.3905 23.8964,120.5855 26.5614,117.9205 C28.2654,116.2165 29.8104,111.4435 29.9444,109.1595" id="Fill-28" fill="#82C26F" mask="url(#mask-2)"></path>
                <path d="M99.8341,73.623 C119.1161,73.623 134.7471,57.992 134.7471,38.71 C134.7471,19.427 119.1161,3.796 99.8341,3.796 C80.5521,3.796 64.9211,19.427 64.9211,38.71 C64.9211,45.316 66.7561,51.494 69.9441,56.762 L99.8341,38.71 L99.8341,73.623 L99.8341,3.796" id="Fill-29" fill="#D3EADD" mask="url(#mask-2)"></path>
                <path d="M97.334,6.392 C80.625,7.672 67.421,21.678 67.421,38.709 C67.421,43.793 68.608,48.783 70.873,53.281 L97.334,37.298 L97.334,6.392 Z M102.334,6.392 L102.334,71.028 C119.043,69.747 132.248,55.742 132.248,38.709 C132.248,21.678 119.043,7.672 102.334,6.392 L102.334,6.392 Z M99.834,76.123 L99.834,73.623 L97.334,73.623 L97.334,43.14 L69.098,60.194 L67.805,58.056 C64.283,52.237 62.421,45.546 62.421,38.709 C62.421,18.08 79.204,1.296 99.834,1.296 C120.464,1.296 137.248,18.08 137.248,38.709 C137.248,59.339 120.464,76.123 99.834,76.123 L99.834,76.123 Z" id="Fill-30" fill="#231916" mask="url(#mask-2)"></path>
                <line x1="124.5216" y1="14.0221" x2="99.8346" y2="38.7091" id="Fill-31" fill="#D3EADD" mask="url(#mask-2)"></line>
                <polygon id="Fill-32" fill="#231916" mask="url(#mask-2)" points="101.6016 40.477 98.0666 36.942 122.7536 12.254 126.2886 15.79"></polygon>
                <line x1="134.7475" y1="38.7096" x2="64.9205" y2="38.7096" id="Fill-33" fill="#D3EADD" mask="url(#mask-2)"></line>
                <polygon id="Fill-34" fill="#231916" mask="url(#mask-2)" points="64.921 41.209 134.748 41.209 134.748 36.209 64.921 36.209"></polygon>
                <line x1="124.5216" y1="63.3971" x2="75.1466" y2="14.0221" id="Fill-35" fill="#D3EADD" mask="url(#mask-2)"></line>
                <polygon id="Fill-36" fill="#231916" mask="url(#mask-2)" points="122.7539 65.1645 73.3789 15.7895 76.9139 12.2545 126.2889 61.6295"></polygon>
                <line x1="24.1289" y1="2.5006" x2="66.9319" y2="144.7456" id="Fill-37" fill="#D3EADD" mask="url(#mask-2)"></line>
                <path d="M66.9312,147.2465 C65.8562,147.2465 64.8642,146.5485 64.5382,145.4665 L21.7352,3.2215 C21.3372,1.8985 22.0862,0.5045 23.4092,0.1065 C24.7292,-0.2905 26.1252,0.4575 26.5232,1.7795 L69.3262,144.0245 C69.7242,145.3475 68.9742,146.7415 67.6522,147.1395 C67.4122,147.2115 67.1692,147.2465 66.9312,147.2465" id="Fill-38" fill="#231916" mask="url(#mask-2)"></path>
            </g>
        </g>
    </g>
</svg>