<?xml version="1.0" encoding="UTF-8"?>
<svg width="157px" height="179px" viewBox="0 0 157 179" version="1.1" xmlns="http://www.w3.org/2000/svg" xmlns:xlink="http://www.w3.org/1999/xlink">
    <title>编组</title>
    <defs>
        <filter x="-8.6%" y="-7.5%" width="117.3%" height="115.0%" filterUnits="objectBoundingBox" id="filter-1">
            <feOffset dx="0" dy="2" in="SourceAlpha" result="shadowOffsetOuter1"></feOffset>
            <feGaussianBlur stdDeviation="2" in="shadowOffsetOuter1" result="shadowBlurOuter1"></feGaussianBlur>
            <feColorMatrix values="0 0 0 0 0   0 0 0 0 0   0 0 0 0 0  0 0 0 0.5 0" type="matrix" in="shadowBlurOuter1" result="shadowMatrixOuter1"></feColorMatrix>
            <feMerge>
                <feMergeNode in="shadowMatrixOuter1"></feMergeNode>
                <feMergeNode in="SourceGraphic"></feMergeNode>
            </feMerge>
        </filter>
        <polygon id="path-2" points="0 0 64.0221623 0 64.0221623 87.0813431 0 87.0813431"></polygon>
        <polygon id="path-4" points="0 0 46.6286579 0 46.6286579 92.0425431 0 92.0425431"></polygon>
    </defs>
    <g id="页面-1" stroke="none" stroke-width="1" fill="none" fill-rule="evenodd">
        <g id="主页-——-1440" transform="translate(-637.000000, -1783.000000)">
            <g id="编组" filter="url(#filter-1)" transform="translate(646.000000, 1792.000000)">
                <polygon id="Fill-1" fill="#114D7C" points="77.2166 87.3838363 38.2486 62.8278363 17.9346 70.0808363 76.2246 105.605836"></polygon>
                <g>
                    <path d="M23.7111,70.6728363 L73.9551,101.295836 L74.6411,88.7148363 L37.9441,65.5908363 L23.7111,70.6728363 Z M76.2241,108.106836 C75.7721,108.106836 75.3211,107.984836 74.9231,107.740836 L16.6341,72.2148363 C15.8111,71.7128363 15.3501,70.7828363 15.4481,69.8248363 C15.5461,68.8658363 16.1871,68.0498363 17.0951,67.7258363 L37.4081,60.4738363 C38.1301,60.2158363 38.9321,60.3028363 39.5821,60.7128363 L78.5501,85.2688363 C79.3171,85.7518363 79.7631,86.6138363 79.7131,87.5198363 L78.7201,105.741836 C78.6721,106.620836 78.1661,107.408836 77.3881,107.818836 C77.0231,108.010836 76.6231,108.106836 76.2241,108.106836 L76.2241,108.106836 Z" id="Fill-2" fill="#231916"></path>
                    <polyline id="Fill-4" fill="#266EB9" points="77.2166 79.0030363 90.9256 66.9680363 136.2396 136.637036 123.4776 149.049036"></polyline>
                    <g transform="translate(74.716838, 64.467493)">
                        <mask id="mask-3" fill="white">
                            <use xlink:href="#path-2"></use>
                        </mask>
                        <g id="Clip-7"></g>
                        <path d="M46.9688623,86.3243431 C46.0058623,85.3343431 46.0288623,83.7523431 47.0178623,82.7893431 L58.3068623,71.8103431 L15.6878623,6.28434306 L4.14986233,16.4143431 C3.11286233,17.3233431 1.53286233,17.2223431 0.620862335,16.1853431 C-0.290137665,15.1473431 -0.186137665,13.5673431 0.850862335,12.6563431 L14.5588623,0.621343059 C15.1038623,0.143343059 15.8298623,-0.075656941 16.5488623,0.023343059 C17.2678623,0.122343059 17.9078623,0.528343059 18.3038623,1.13734306 L63.6178623,70.8063431 C64.2698623,71.8073431 64.1208623,73.1293431 63.2658623,73.9613431 L50.5038623,86.3733431 C50.0178623,86.8463431 49.3888623,87.0813431 48.7608623,87.0813431 C48.1098623,87.0813431 47.4588623,86.8283431 46.9688623,86.3243431 Z" id="Fill-6" fill="#231916" mask="url(#mask-3)"></path>
                    </g>
                    <polygon id="Fill-8" fill="#1A5592" points="77.2166 79.0030363 76.2246 105.606036 17.9346 70.0800363 17.9346 106.029036 69.9836 136.364036 66.3766 157.594036 123.4776 149.049036"></polygon>
                    <path d="M20.4352,104.591736 L71.2422,134.202736 C72.1432,134.727736 72.6222,135.754736 72.4482,136.781736 L69.4202,154.610736 L119.2312,147.155736 L79.4252,86.8817363 L78.7222,105.699736 C78.6882,106.585736 78.1882,107.388736 77.4072,107.808736 C76.6262,108.229736 75.6812,108.203736 74.9232,107.740736 L20.4352,74.5307363 L20.4352,104.591736 Z M66.3772,160.093736 C65.7102,160.093736 65.0652,159.826736 64.5922,159.343736 C64.0302,158.771736 63.7782,157.964736 63.9122,157.174736 L67.2282,137.651736 L16.6762,108.188736 C15.9082,107.739736 15.4352,106.917736 15.4352,106.028736 L15.4352,70.0797363 C15.4352,69.1767363 15.9232,68.3427363 16.7112,67.9007363 C17.4982,67.4557363 18.4632,67.4747363 19.2362,67.9457363 L73.8852,101.252736 L74.7192,78.9097363 C74.7592,77.8237363 75.4962,76.8887363 76.5422,76.5957363 C77.5882,76.3027363 78.7042,76.7177363 79.3032,77.6247363 L125.5632,147.670736 C126.0342,148.383736 126.1082,149.286736 125.7612,150.066736 C125.4132,150.846736 124.6922,151.394736 123.8482,151.521736 L66.7472,160.066736 C66.6232,160.084736 66.5002,160.093736 66.3772,160.093736 L66.3772,160.093736 Z" id="Fill-10" fill="#231916"></path>
                    <polygon id="Fill-12" fill="#E1EFE6" points="46.2959 36.0999363 77.2699 2.49893634 98.6039 4.19193634 51.9599 53.2979363"></polygon>
                    <path d="M49.13,36.7138363 L53.026,48.5448363 L93.182,6.26983634 L78.283,5.08683634 L49.13,36.7138363 Z M51.96,55.7978363 C51.777,55.7978363 51.595,55.7778363 51.412,55.7368363 C50.555,55.5448363 49.86,54.9148363 49.585,54.0798363 L43.921,36.8818363 C43.638,36.0198363 43.843,35.0718363 44.458,34.4048363 L75.432,0.804836335 C75.951,0.240836335 76.695,-0.0491636646 77.468,0.00683633542 L98.802,1.69983634 C99.762,1.77583634 100.593,2.39883634 100.938,3.29783634 C101.283,4.19683634 101.08,5.21583634 100.416,5.91383634 L53.773,55.0198363 C53.295,55.5228363 52.638,55.7978363 51.96,55.7978363 L51.96,55.7978363 Z" id="Fill-14" fill="#231916"></path>
                    <polyline id="Fill-16" fill="#DCECE3" points="44.1281 28.0723363 27.8841 20.0903363 2.5001 98.5443363 17.9351 107.132336"></polyline>
                    <g transform="translate(0.000000, 17.589293)">
                        <mask id="mask-5" fill="white">
                            <use xlink:href="#path-4"></use>
                        </mask>
                        <g id="Clip-19"></g>
                        <path d="M17.9328,92.0425431 C17.5218,92.0425431 17.1048,91.9405431 16.7198,91.7275431 L1.2848,83.1395431 C0.2418,82.5595431 -0.2462,81.3205431 0.1218,80.1855431 L25.5058,1.73054312 C25.7288,1.04054312 26.2418,0.48054312 26.9098,0.19854312 C27.5778,-0.0864568795 28.3358,-0.0624568795 28.9868,0.25654312 L45.2308,8.23854312 C46.4698,8.84854312 46.9808,10.3465431 46.3718,11.5855431 C45.7628,12.8245431 44.2618,13.3335431 43.0258,12.7275431 L29.3738,6.01854312 L5.5118,79.7695431 L19.1508,87.3575431 C20.3568,88.0285431 20.7908,89.5515431 20.1198,90.7585431 C19.6628,91.5795431 18.8108,92.0425431 17.9328,92.0425431" id="Fill-18" fill="#231916" mask="url(#mask-5)"></path>
                    </g>
                    <polygon id="Fill-20" fill="#D3EADD" points="44.1281 28.0723363 51.9601 53.2973363 98.6031 4.19233634 107.9021 38.6253363 65.8931 81.1443363 74.8391 100.547336 17.9351 107.132336"></polygon>
                    <path d="M44.0509,36.2548363 L21.5409,104.197836 L71.1239,98.4598363 L63.6229,82.1918363 C63.1879,81.2448363 63.3829,80.1278363 64.1149,79.3878363 L105.1139,37.8898363 L97.3509,9.14183634 L53.7729,55.0198363 C53.1609,55.6628363 52.2549,55.9348363 51.3919,55.7328363 C50.5279,55.5298363 49.8349,54.8868363 49.5719,54.0388363 L44.0509,36.2548363 Z M17.9349,109.631836 C17.1879,109.631836 16.4739,109.296836 15.9959,108.709836 C15.4569,108.047836 15.2939,107.155836 15.5619,106.345836 L41.7549,27.2858363 C42.0939,26.2628363 43.0509,25.5718363 44.1279,25.5718363 L44.1519,25.5718363 C45.2379,25.5828363 46.1939,26.2928363 46.5159,27.3308363 L53.0829,48.4848363 L96.7909,2.47083634 C97.4119,1.81683634 98.3409,1.54983634 99.2169,1.76883634 C100.0939,1.98983634 100.7809,2.66783634 101.0169,3.54083634 L110.3149,37.9738363 C110.5469,38.8318363 110.3049,39.7488363 109.6799,40.3818363 L68.8889,81.6698363 L77.1099,99.4998363 C77.4449,100.227836 77.4109,101.071836 77.0189,101.771836 C76.6259,102.469836 75.9229,102.938836 75.1259,103.029836 L18.2229,109.614836 C18.1269,109.625836 18.0299,109.631836 17.9349,109.631836 L17.9349,109.631836 Z" id="Fill-22" fill="#231916"></path>
                </g>
            </g>
        </g>
    </g>
</svg>