<?xml version="1.0" encoding="UTF-8"?>
<svg width="44px" height="52px" viewBox="0 0 44 52" version="1.1" xmlns="http://www.w3.org/2000/svg" xmlns:xlink="http://www.w3.org/1999/xlink">
    <title>编组</title>
    <defs>
        <polygon id="path-1" points="0 52 44 52 44 0 0 0"></polygon>
    </defs>
    <g id="页面-1" stroke="none" stroke-width="1" fill="none" fill-rule="evenodd">
        <g id="主页-——-1440" transform="translate(-175.000000, -1803.000000)">
            <g id="编组-17" transform="translate(118.000000, 1760.000000)">
                <g id="编组" transform="translate(57.000000, 43.000000)">
                    <path d="M16.999842,8.62850128 C8.50172273,8.62850128 2.57957608,11.1959964 2.57957608,13.5 C2.57957608,15.8040036 8.50172273,18.3714987 16.999842,18.3714987 C25.4979614,18.3714987 31.4204239,15.8040036 31.4204239,13.5 C31.4204239,11.1959964 25.4979614,8.62850128 16.999842,8.62850128 M16.999842,20 C7.878422,20 1,17.2054918 1,13.5 C1,9.79450819 7.878422,7 16.999842,7 C26.121578,7 33,9.79450819 33,13.5 C33,17.2054918 26.121578,20 16.999842,20" id="Fill-1" fill="#231916"></path>
                    <path d="M16.999842,52 C7.878422,52 1,48.9907296 1,45 L2.57957608,45 C2.57957608,47.481359 8.50172273,50.2461415 16.999842,50.2461415 C25.4979614,50.2461415 31.4204239,47.481359 31.4204239,45 L33,45 C33,48.9907296 26.121578,52 16.999842,52" id="Fill-3" fill="#231916"></path>
                    <mask id="mask-2" fill="white">
                        <use xlink:href="#path-1"></use>
                    </mask>
                    <g id="Clip-6"></g>
                    <polygon id="Fill-5" fill="#231916" mask="url(#mask-2)" points="1 46 3 46 3 13 1 13"></polygon>
                    <polygon id="Fill-7" fill="#231916" mask="url(#mask-2)" points="31 46 33 46 33 13 31 13"></polygon>
                    <path d="M29,45 C29,47.2092023 23.4035659,49 16.4998392,49 C9.59643413,49 4,47.2092023 4,45 C4,42.7907977 9.59643413,41 16.4998392,41 C23.4035659,41 29,42.7907977 29,45" id="Fill-8" fill="#97EABC" mask="url(#mask-2)"></path>
                    <polygon id="Fill-9" fill="#97EABC" mask="url(#mask-2)" points="4 45 29 45 29 27 4 27"></polygon>
                    <path d="M4,27 C4,27 4.39556453,24.138001 10.1907457,24.138001 C15.9859269,24.138001 16.067291,26.9137494 22.4056498,26.9137494 C28.7440086,26.9137494 29,24 29,24 L29,27" id="Fill-10" fill="#97EABC" mask="url(#mask-2)"></path>
                    <path d="M8.49149684,40.5461551 L11.0145572,41.9449416 L13.5085517,40.5500797 L10.9858254,39.0639714 L8.49149684,40.5461551 Z M11.0155595,43 C10.9303661,43 10.8451728,42.9787418 10.7686658,42.9365526 L7.25402124,40.9879977 C7.09933679,40.9019839 7.00278429,40.7423842 7.00005459,40.5680674 C6.99743882,40.3940776 7.08897994,40.2318615 7.24099166,40.1415962 L10.7245657,38.0713792 C10.8835933,37.9765351 11.0837142,37.9762081 11.243076,38.070398 L14.7573864,40.140615 C14.9097322,40.2302263 15.0019415,40.3921153 14.999969,40.5664321 C14.9979324,40.7404219 14.9020481,40.9003487 14.7476977,40.9870165 L11.2641237,42.9355714 C11.1872826,42.9784148 11.1014211,43 11.0155595,43 L11.0155595,43 Z" id="Fill-11" fill="#FEFEFE" mask="url(#mask-2)"></path>
                    <path d="M11.0155229,46 C10.9303333,46 10.8451437,45.9785673 10.7686401,45.9350322 L7.25415234,43.9397836 C7.01361706,43.8024805 6.92876155,43.4960601 7.06506488,43.2549425 C7.20136821,43.0134899 7.50771662,42.9287639 7.74825191,43.0650623 L11.0145207,44.919659 L14.2500543,43.066067 C14.4905896,42.9287639 14.796604,43.0124853 14.9339095,43.253268 C15.0712151,43.4940508 14.9876959,43.8011409 14.7471606,43.9387789 L11.264076,45.9340275 C11.1872384,45.9782324 11.1013806,46 11.0155229,46" id="Fill-12" fill="#FEFEFE" mask="url(#mask-2)"></path>
                    <path d="M11.5,46 C11.2236667,46 11,45.7621071 11,45.468989 L11,41.531011 C11,41.2378929 11.2236667,41 11.5,41 C11.7763333,41 12,41.2378929 12,41.531011 L12,45.468989 C12,45.7621071 11.7763333,46 11.5,46" id="Fill-13" fill="#FEFEFE" mask="url(#mask-2)"></path>
                    <path d="M14.5,44 C14.2236667,44 14,43.7652156 14,43.4759276 L14,39.5240724 C14,39.2347844 14.2236667,39 14.5,39 C14.7763333,39 15,39.2347844 15,39.5240724 L15,43.4759276 C15,43.7652156 14.7763333,44 14.5,44" id="Fill-14" fill="#FEFEFE" mask="url(#mask-2)"></path>
                    <path d="M7.5,44 C7.22366667,44 7,43.7621071 7,43.468989 L7,39.531011 C7,39.2378929 7.22366667,39 7.5,39 C7.77633333,39 8,39.2378929 8,39.531011 L8,43.468989 C8,43.7621071 7.77633333,44 7.5,44" id="Fill-15" fill="#FEFEFE" mask="url(#mask-2)"></path>
                    <path d="M23.0020361,37.0183971 L25.7964456,37.7806557 L25.0802413,34.8997021 L22.2221617,34.2011054 L23.0020361,37.0183971 Z M26.4947953,39 C26.4503273,39 26.4058593,38.993937 26.3617282,38.9821477 L22.4589875,37.9177477 C22.2868424,37.8705907 22.1524278,37.7368671 22.104591,37.565081 L21.0181569,33.6406112 C20.970657,33.4678146 21.01782,33.2825551 21.1424652,33.1535471 C21.2674472,33.0255496 21.4510461,32.9713191 21.6252125,33.0147709 L25.6168892,33.9905832 C25.7994775,34.0350455 25.9419772,34.1768532 25.987119,34.3590812 L26.9849539,38.3728124 C27.0284113,38.5466195 26.9761951,38.7305316 26.8481811,38.8558344 C26.7521707,38.9494747 26.6248305,39 26.4947953,39 L26.4947953,39 Z" id="Fill-16" fill="#FEFEFE" mask="url(#mask-2)"></path>
                    <path d="M23.4949727,41 C23.4508451,41 23.4060439,40.994273 23.3615795,40.9821453 L19.4591542,39.9179398 C19.2870231,39.8707765 19.1526193,39.737035 19.1051233,39.5652259 L18.0184402,35.640231 C17.943996,35.3710635 18.1016425,35.0928002 18.3707869,35.0183496 C18.6389207,34.9442359 18.9181707,35.1012222 18.9926148,35.3703897 L20.0021589,39.0184688 L23.6276922,40.0072131 C23.8968366,40.0806531 24.0554937,40.3585795 23.98206,40.627747 C23.920753,40.8524463 23.7172947,41 23.4949727,41" id="Fill-17" fill="#FEFEFE" mask="url(#mask-2)"></path>
                    <path d="M20.4140954,39 C20.3080693,39 20.2020432,38.9596926 20.1211431,38.8788018 C19.959619,38.7170202 19.959619,38.4547462 20.1211431,38.2929646 L22.2930213,36.1213362 C22.4548216,35.9595546 22.7168496,35.9595546 22.8786498,36.1213362 C23.0404501,36.2831178 23.0404501,36.5451157 22.8786498,36.7068973 L20.7070477,38.8788018 C20.6261476,38.9596926 20.5201215,39 20.4140954,39" id="Fill-18" fill="#FEFEFE" mask="url(#mask-2)"></path>
                    <path d="M24.409125,41 C24.3043715,41 24.1996181,40.9601728 24.119689,40.8802455 C23.9601037,40.720391 23.9601037,40.4612412 24.119689,40.3013867 L26.3015072,38.1198909 C26.4613653,37.9600364 26.7202482,37.9600364 26.8801064,38.1198909 C27.0399645,38.2797454 27.0399645,38.5388952 26.8801064,38.6984769 L24.698561,40.8802455 C24.6186319,40.9601728 24.5138785,41 24.409125,41" id="Fill-19" fill="#FEFEFE" mask="url(#mask-2)"></path>
                    <path d="M18.4140954,36 C18.3080693,36 18.2020432,35.9596889 18.1211431,35.8787907 C17.959619,35.7169942 17.959619,35.4546961 18.1211431,35.2928995 L20.2930213,33.1213474 C20.4548216,32.9595509 20.7168496,32.9595509 20.8786498,33.1213474 C21.0404501,33.2831439 21.0404501,33.5451659 20.8786498,33.7069624 L18.7070477,35.8787907 C18.6261476,35.9596889 18.5201215,36 18.4140954,36" id="Fill-20" fill="#FEFEFE" mask="url(#mask-2)"></path>
                    <path d="M13.0021648,29.0186227 L15.7964843,29.7805872 L15.0799662,26.8998087 L12.2223155,26.2011728 L13.0021648,29.0186227 Z M16.4948116,31 C16.450345,31 16.4058784,30.9939366 16.3617487,30.9821467 L12.4591336,29.9180238 C12.2869941,29.8708642 12.1525838,29.737133 12.1047486,29.5653373 L11.0183494,25.6406471 C10.9705142,25.4678408 11.0176757,25.282571 11.1426537,25.1535557 C11.2676317,25.0255511 11.4512248,24.9713175 11.6253855,25.0147717 L15.6165968,25.9906388 C15.7991793,26.0351036 15.9420113,26.1769193 15.9871516,26.3591575 L16.9849544,30.3727772 C17.0284104,30.546594 16.9761959,30.7305165 16.848186,30.8558263 C16.7521787,30.9494718 16.6248426,31 16.4948116,31 L16.4948116,31 Z" id="Fill-21" fill="#FEFEFE" mask="url(#mask-2)"></path>
                    <path d="M14.4949727,34 C14.4508451,34 14.4060439,33.9942736 14.3615795,33.982147 L10.4591542,32.9177018 C10.2870231,32.8705428 10.1526193,32.7368135 10.1051233,32.5650201 L9.01844016,28.6403837 C8.94399597,28.3712408 9.10164249,28.0930029 9.37078688,28.0185591 C9.63959442,27.9437785 9.91817065,28.101761 9.99261484,28.3705671 L11.0021589,32.018313 L14.6276922,33.0073038 C14.8968366,33.0807371 15.0554937,33.3586381 14.98206,33.627781 C14.920753,33.8524598 14.7172947,34 14.4949727,34" id="Fill-22" fill="#FEFEFE" mask="url(#mask-2)"></path>
                    <path d="M10.4140954,33 C10.3080693,33 10.2020432,32.9596889 10.1211431,32.8787907 C9.95961897,32.7169942 9.95961897,32.4546961 10.1211431,32.2928995 L12.2930213,30.1213474 C12.4548216,29.9595509 12.7168496,29.9595509 12.8786498,30.1213474 C13.0404501,30.2831439 13.0404501,30.5451659 12.8786498,30.7069624 L10.7070477,32.8787907 C10.6261476,32.9596889 10.5201215,33 10.4140954,33" id="Fill-23" fill="#FEFEFE" mask="url(#mask-2)"></path>
                    <path d="M14.409125,34 C14.3043715,34 14.1996181,33.9601764 14.119689,33.8802564 C13.9601037,33.7204164 13.9601037,33.4612902 14.119689,33.3014502 L16.3015072,31.11988 C16.4613653,30.96004 16.7202482,30.96004 16.8801064,31.11988 C17.0399645,31.27972 17.0399645,31.5388462 16.8801064,31.6984134 L14.698561,33.8802564 C14.6186319,33.9601764 14.5138785,34 14.409125,34" id="Fill-24" fill="#FEFEFE" mask="url(#mask-2)"></path>
                    <path d="M9.4140954,28 C9.3080693,28 9.20204321,27.9596889 9.12114309,27.8787907 C8.95961897,27.7169942 8.95961897,27.4546961 9.12114309,27.2928995 L11.2930213,25.1213474 C11.4548216,24.9595509 11.7168496,24.9595509 11.8786498,25.1213474 C12.0404501,25.2831439 12.0404501,25.5451659 11.8786498,25.7069624 L9.7070477,27.8787907 C9.62614758,27.9596889 9.52012149,28 9.4140954,28" id="Fill-25" fill="#FEFEFE" mask="url(#mask-2)"></path>
                    <path d="M19.4495995,25.000776 C19.1479292,24.982984 18.9272485,25.2742103 19.0223641,25.5598181 C19.3026883,26.4032196 19.9374201,27.9745307 21.0232446,28.9671349 C22.1012213,29.9519356 23.7156751,30.0327798 24.5905502,29.9918895 C24.8947318,29.9775311 25.0881021,29.6650793 24.9597118,29.3903963 C24.533732,28.4792606 24.1991009,27.5007027 23.0913025,26.3991618 C22.3831151,25.6949746 20.398872,25.0563368 19.4495995,25.000776" id="Fill-26" fill="#82C26F" mask="url(#mask-2)"></path>
                    <path d="M21.9993808,43.3746319 C22.0135998,43.1231517 21.7804753,42.9395643 21.5523109,43.0185415 C20.8774072,43.2523557 19.6201883,43.780949 18.8262423,44.6860699 C18.0382484,45.5842629 17.9737672,46.9296472 18.0065038,47.6588012 C18.0177467,47.9123597 18.2677355,48.0734317 18.4876331,47.9663967 C19.2164365,47.6113455 19.9994702,47.3325004 20.8807139,46.4093673 C21.4441808,45.8191162 21.9550706,44.1657899 21.9993808,43.3746319" id="Fill-27" fill="#82C26F" mask="url(#mask-2)"></path>
                    <path d="M9.99938082,34.3746319 C10.0135998,34.1231517 9.78047527,33.9395643 9.55231086,34.0185415 C8.87740718,34.2523557 7.62018825,34.780949 6.82624227,35.6860699 C6.0382484,36.5842629 5.97376715,37.9296472 6.00650378,38.6588012 C6.01774667,38.9123597 6.26773549,39.0734317 6.48763307,38.9663967 C7.21643646,38.6113455 7.99947024,38.3325004 8.88071391,37.4093673 C9.44418078,36.8191162 9.95507064,35.1657899 9.99938082,34.3746319" id="Fill-28" fill="#82C26F" mask="url(#mask-2)"></path>
                    <path d="M33,24 C39.0751583,24 44,19.0752288 44,13.0001575 C44,6.92477122 39.0751583,2 33,2 C26.9248417,2 22,6.92477122 22,13.0001575 C22,15.0814728 22.5781514,17.0279405 23.582591,18.6876996 L33,13.0001575 L33,24 L33,2" id="Fill-29" fill="#FFFFC9" mask="url(#mask-2)"></path>
                    <path d="M31.7314071,2.56638646 C26.5954669,2.95982734 22.5368784,7.26493111 22.5368784,12.4998463 C22.5368784,14.0625443 22.9017333,15.5963489 23.5979392,16.9789247 L31.7314071,12.0661392 L31.7314071,2.56638646 Z M33.2682855,2.56638646 L33.2682855,22.4339209 C38.4042257,22.0401727 42.4631216,17.7353763 42.4631216,12.4998463 C42.4631216,7.26493111 38.4042257,2.95982734 33.2682855,2.56638646 L33.2682855,2.56638646 Z M32.4998463,24 L32.4998463,23.2315608 L31.7314071,23.2315608 L31.7314071,13.8618279 L23.0523474,19.1038128 L22.6549107,18.4466436 C21.5723335,16.6580245 21,14.6013738 21,12.4998463 C21,6.15899341 26.158686,1 32.4998463,1 C38.8410066,1 44,6.15899341 44,12.4998463 C44,18.8410066 38.8410066,24 32.4998463,24 L32.4998463,24 Z" id="Fill-30" fill="#231916" mask="url(#mask-2)"></path>
                    <line x1="40" y1="4" x2="32" y2="12" id="Fill-31" fill="#D3EADD" mask="url(#mask-2)"></line>
                    <polygon id="Fill-32" fill="#231916" mask="url(#mask-2)" points="33.0020551 12 32 10.9979804 38.9979449 4 40 5.00230309"></polygon>
                    <line x1="44" y1="12.5" x2="22" y2="12.5" id="Fill-33" fill="#D3EADD" mask="url(#mask-2)"></line>
                    <polygon id="Fill-34" fill="#231916" mask="url(#mask-2)" points="22 14 44 14 44 12 22 12"></polygon>
                    <line x1="40" y1="20" x2="24" y2="4" id="Fill-35" fill="#D3EADD" mask="url(#mask-2)"></line>
                    <polygon id="Fill-36" fill="#231916" mask="url(#mask-2)" points="39.8642034 21 24 5.13579664 25.1357966 4 41 19.8642034"></polygon>
                    <line x1="9" y1="1" x2="22" y2="46" id="Fill-37" fill="#D3EADD" mask="url(#mask-2)"></line>
                    <path d="M22.2150208,47 C21.8777093,47 21.5664415,46.7772034 21.4641498,46.4318368 L8.03350613,1.02825536 C7.90862245,0.605963266 8.14364224,0.161008487 8.55877066,0.0339697479 C8.97295774,-0.0927497982 9.41099195,0.146006425 9.53587563,0.567979321 L22.9665193,45.9715608 C23.091403,46.3938529 22.8560694,46.8388076 22.4412548,46.9658464 C22.365948,46.9888283 22.2897,47 22.2150208,47" id="Fill-38" fill="#231916" mask="url(#mask-2)"></path>
                </g>
            </g>
        </g>
    </g>
</svg>