<?xml version="1.0" encoding="UTF-8"?>
<svg width="44px" height="50px" viewBox="0 0 44 50" version="1.1" xmlns="http://www.w3.org/2000/svg" xmlns:xlink="http://www.w3.org/1999/xlink">
    <title>编组</title>
    <defs>
        <polygon id="path-1" points="0 0 20.3041332 0 20.3041332 27.1969863 0 27.1969863"></polygon>
        <polygon id="path-3" points="0 0 14.7879179 0 14.7879179 28.7464536 0 28.7464536"></polygon>
    </defs>
    <g id="页面-1" stroke="none" stroke-width="1" fill="none" fill-rule="evenodd">
        <g id="主页-——-1440" transform="translate(-573.000000, -1804.000000)">
            <g id="编组-18" transform="translate(524.000000, 1760.000000)">
                <g id="编组" transform="translate(49.000000, 44.000000)">
                    <polygon id="Fill-1" fill="#114D7C" points="25 27.0364673 12.5106778 19 6 21.3736968 24.682062 33"></polygon>
                    <g>
                        <path d="M7.51979184,22.0723302 L23.4542875,31.6364146 L23.6718471,27.7071541 L12.0336776,20.4851351 L7.51979184,22.0723302 Z M24.1738833,33.7636059 C24.030535,33.7636059 23.8875039,33.7255032 23.7612813,33.6492978 L5.27537607,22.5539231 C5.01436799,22.3971399 4.8681654,22.1066851 4.89924535,21.8074854 C4.93032529,21.5079734 5.13361348,21.2531227 5.42157865,21.151932 L11.8636894,18.8870089 C12.0926661,18.8064311 12.3470142,18.8336026 12.5531566,18.9616526 L24.9115562,26.6309096 C25.1548043,26.7817587 25.2962498,27.050976 25.2803927,27.3339352 L24.9654704,33.0249761 C24.9502476,33.2995028 24.7897736,33.5456086 24.5430369,33.6736586 C24.42728,33.7336234 24.3004231,33.7636059 24.1738833,33.7636059 L24.1738833,33.7636059 Z" id="Fill-2" fill="#231916"></path>
                        <polyline id="Fill-4" fill="#266EB9" points="24.488647 24.6739935 28.8363503 20.9152581 43.2073346 42.6740732 39.1599651 46.5505521"></polyline>
                        <g transform="translate(23.695867, 20.134296)">
                            <mask id="mask-2" fill="white">
                                <use xlink:href="#path-1"></use>
                            </mask>
                            <g id="Clip-7"></g>
                            <path d="M14.8958111,26.9605623 C14.5904032,26.6513684 14.5976974,26.1572829 14.9113511,25.8565216 L18.4915701,22.427593 L4.97528411,1.96270735 L1.31609672,5.12647885 C0.987220196,5.41037503 0.486135425,5.37883101 0.196901684,5.05495825 C-0.0920149148,4.73077317 -0.0590321197,4.23731227 0.269844404,3.95279145 L4.6172305,0.194056018 C4.79007303,0.0447684782 5.02031832,-0.023628951 5.2483436,0.00729043481 C5.47636889,0.0382098206 5.67933993,0.165010534 5.80492827,0.355211604 L20.1759126,22.1140267 C20.3826894,22.426656 20.3354352,22.8395391 20.0642786,23.0993869 L16.016909,26.9758658 C15.8627779,27.1235918 15.6632954,27.1969863 15.4641301,27.1969863 C15.2576705,27.1969863 15.0512109,27.1179701 14.8958111,26.9605623 Z" id="Fill-6" fill="#231916" mask="url(#mask-2)"></path>
                        </g>
                        <polygon id="Fill-8" fill="#1A5592" points="24.488647 24.6739935 24.1740419 32.9825635 5.68781957 21.8871887 5.68781957 33.1146736 22.1947571 42.5888106 21.0508249 49.2193011 39.1599651 46.5505521"></polygon>
                        <path d="M6.48086551,32.6657803 L22.5939123,41.9137998 C22.8796575,42.0777663 23.0315686,42.3985158 22.9763859,42.7192654 L22.0160791,48.2875657 L37.8132522,45.9592423 L25.1890874,27.1346457 L24.9661364,33.0118276 C24.9553536,33.2885404 24.7967824,33.539331 24.5490943,33.6705042 C24.3014062,33.8019896 24.0017068,33.7938694 23.761313,33.6492666 L6.48086551,23.2772181 L6.48086551,32.6657803 Z M21.0510152,50 C20.8394813,50 20.6349246,49.9166114 20.4849163,49.7657622 C20.3066823,49.5871169 20.2267625,49.335077 20.2692595,49.0883466 L21.3209033,42.9909812 L5.28872775,33.7891846 C5.0451625,33.6489543 4.89515421,33.3922297 4.89515421,33.1145799 L4.89515421,21.887095 C4.89515421,21.6050727 5.04991963,21.3446003 5.29982773,21.2065562 C5.54941869,21.0675751 5.85546097,21.0735091 6.10061194,21.2206105 L23.4321193,31.6229537 L23.6966159,24.6448544 C23.7093016,24.3056781 23.9430355,24.0136617 24.2747663,23.9221528 C24.6064971,23.8306439 24.9604279,23.9602554 25.1503961,24.243527 L39.821397,46.1200856 C39.970771,46.3427676 39.9942395,46.6247899 39.8841912,46.8683972 C39.7738257,47.1120044 39.5451661,47.2831542 39.277498,47.3228184 L21.1683579,49.9915674 C21.1290322,49.9971891 21.0900237,50 21.0510152,50 L21.0510152,50 Z" id="Fill-10" fill="#231916"></path>
                        <polygon id="Fill-12" fill="#E1EFE6" points="14.6823864 11.2746248 24.5055507 0.78046037 31.2714637 1.3092131 16.4786801 16.6458531"></polygon>
                        <path d="M15.5811992,11.4663563 L16.8167855,15.161379 L29.5519501,1.95817665 L24.8268475,1.58870561 L15.5811992,11.4663563 Z M16.4787118,17.4266144 C16.4206748,17.4266144 16.3629549,17.4203681 16.3049179,17.4075631 C16.033127,17.3475982 15.8127131,17.1508385 15.725499,16.8900538 L13.9292052,11.5188255 C13.8394539,11.2496082 13.9044681,10.9535317 14.0995106,10.7452162 L23.922675,0.251364093 C24.0872718,0.0752172886 24.3232256,-0.0153546496 24.5683766,0.00213510396 L31.3342896,0.530887833 C31.6387461,0.554623927 31.9022914,0.749197436 32.0117054,1.02997044 C32.1211195,1.31074345 32.0567396,1.6289945 31.8461572,1.84699179 L17.0536907,17.1836318 C16.9020967,17.3407273 16.6937343,17.4266144 16.4787118,17.4266144 L16.4787118,17.4266144 Z" id="Fill-14" fill="#231916"></path>
                        <polyline id="Fill-16" fill="#DCECE3" points="13.9948854 8.76746866 8.84322649 6.27455414 0.792887364 30.7770743 5.68797815 33.4592529"></polyline>
                        <g transform="translate(0.000000, 5.493436)">
                            <mask id="mask-4" fill="white">
                                <use xlink:href="#path-3"></use>
                            </mask>
                            <g id="Clip-19"></g>
                            <path d="M5.68724872,28.7464536 C5.55690325,28.7464536 5.42465493,28.7145972 5.30255516,28.6480737 L0.407464376,25.9658951 C0.0766849985,25.7847512 -0.0780804244,25.3977904 0.0386279273,25.0433105 L8.08896705,0.540478085 C8.15968978,0.324979335 8.32238376,0.150081799 8.53423479,0.0620083974 C8.74608582,-0.0270019557 8.98647965,-0.019506347 9.19293926,0.0801227851 L14.3445981,2.57303731 C14.7375374,2.76355069 14.8995971,3.2314016 14.7064574,3.6183624 C14.5133178,4.0053232 14.0372873,4.16429257 13.6452994,3.97502845 L9.31567331,1.8796935 L1.74802471,24.9133867 L6.07352799,27.2832483 C6.45600156,27.492813 6.5936413,27.9684718 6.38083884,28.3454385 C6.23590483,28.6018508 5.96569962,28.7464536 5.68724872,28.7464536" id="Fill-18" fill="#231916" mask="url(#mask-4)"></path>
                        </g>
                        <polygon id="Fill-20" fill="#D3EADD" points="13.9948854 8.76746866 16.4787435 16.6456657 31.27121 1.30933803 34.2203158 12.0633503 20.8974866 25.342758 23.7346413 31.4026453 5.68797815 33.4592529"></polygon>
                        <path d="M13.970402,11.3230027 L6.83152971,32.5427586 L22.5563944,30.7506835 L20.1775103,25.6699101 C20.0395534,25.3741459 20.1013961,25.0252877 20.3335443,24.7941731 L33.3360598,11.8336411 L30.8740844,2.85515116 L17.053659,17.1836318 C16.859568,17.3844516 16.5722371,17.4694019 16.2985433,17.4063138 C16.0245324,17.3429135 15.8047528,17.1420936 15.7213444,16.8772488 L13.970402,11.3230027 Z M5.68791472,34.2398893 C5.45100945,34.2398893 5.22456988,34.1352631 5.07297588,33.951933 C4.9020362,33.7451792 4.85034201,33.4665924 4.93533613,33.2136156 L13.2422433,8.52183132 C13.3497546,8.202331 13.6532597,7.98651994 13.9948219,7.98651994 L14.0024333,7.98651994 C14.3468498,7.98995542 14.6500378,8.21170051 14.7521576,8.53588559 L16.8348309,15.14264 L30.6964848,0.771684262 C30.8934301,0.567428925 31.1880553,0.484040279 31.4658719,0.552437708 C31.7440057,0.621459771 31.9618824,0.833210717 32.036728,1.10586348 L34.9855167,11.8598757 C35.0590937,12.1278437 34.9823453,12.4142384 34.7841314,12.6119351 L21.8475814,25.5068806 L24.4548079,31.0754932 C24.5610506,31.30286 24.5502678,31.5664556 24.425948,31.7850775 C24.3013111,32.0030748 24.0783601,32.1495515 23.8255977,32.1779723 L5.77925169,34.23458 C5.74880603,34.2380154 5.71804323,34.2398893 5.68791472,34.2398893 L5.68791472,34.2398893 Z" id="Fill-22" fill="#231916"></path>
                    </g>
                </g>
            </g>
        </g>
    </g>
</svg>