<?xml version="1.0" encoding="utf-8"?>
<!-- Generator: Adobe Illustrator 25.3.1, SVG Export Plug-In . SVG Version: 6.00 Build 0)  -->
<svg version="1.1" id="图层_1" xmlns="http://www.w3.org/2000/svg" xmlns:xlink="http://www.w3.org/1999/xlink" x="0px" y="0px"
	 viewBox="0 0 48 46" style="enable-background:new 0 0 48 46;" xml:space="preserve">
<style type="text/css">
	.st0{fill:#163A69;}
</style>
<g id="页面-1">
	<g id="编组-11" transform="translate(-1238.000000, -2918.000000)">
		<g id="medium-square-fill" transform="translate(40.000000, 2918.000000)">
			<g transform="translate(1199.354839, 0.000000)">
				<path id="形状" class="st0" d="M43.8,0H1.5c-1,0-1.8,0.8-1.8,1.8v42.3c0,1,0.8,1.8,1.8,1.8h42.3c1,0,1.8-0.8,1.8-1.8V1.8
					C45.6,0.8,44.8,0,43.8,0z M37.4,11.8L35,14.1c-0.2,0.2-0.3,0.4-0.3,0.7v16.5c0,0.3,0.1,0.5,0.3,0.7l2.3,2.2v0.5H25.8v-0.5
					l2.4-2.3c0.2-0.2,0.2-0.3,0.2-0.7V17.9l-6.6,16.8h-0.9l-7.7-16.8v11.2c-0.1,0.5,0.1,0.9,0.4,1.3l3.1,3.7v0.5H7.9v-0.5l3.1-3.7
					c0.3-0.3,0.5-0.8,0.4-1.3v-13c0-0.4-0.1-0.7-0.4-1l-2.7-3.3v-0.5h8.5l6.6,14.5l5.8-14.4h8.1V11.8z"/>
			</g>
		</g>
	</g>
</g>
</svg>
