<?xml version="1.0" encoding="UTF-8"?>
<svg width="391px" height="143px" viewBox="0 0 391 143" version="1.1" xmlns="http://www.w3.org/2000/svg" xmlns:xlink="http://www.w3.org/1999/xlink">
    <title>编组 19</title>
    <defs>
        <rect id="path-1" x="0" y="0" width="386" height="138" rx="11"></rect>
        <filter x="-0.6%" y="-1.8%" width="102.6%" height="107.2%" filterUnits="objectBoundingBox" id="filter-2">
            <feOffset dx="5" dy="5" in="SourceAlpha" result="shadowOffsetOuter1"></feOffset>
            <feColorMatrix values="0 0 0 0 0.31372549   0 0 0 0 0.756862745   0 0 0 0 0.521568627  0 0 0 1 0" type="matrix" in="shadowOffsetOuter1"></feColorMatrix>
        </filter>
        <polygon id="path-3" points="0 0 30.1476207 0 30.1476207 38.3112152 0 38.3112152"></polygon>
        <path d="M20.0283623,5.64308568 L0,39 L49,39 L45.7251424,32.9804501 L23.0557201,32.9804501 C20.3810229,32.9804501 18.485649,30.3815076 19.3141891,27.849539 L19.3141891,27.849539 L22.3224268,18.6564805 C22.7983062,17.2020879 23.6895179,15.9175976 24.8870061,14.9598698 L24.8870061,14.9598698 L38.4191187,4.13863883 L31.4912492,0" id="path-5"></path>
    </defs>
    <g id="页面-1" stroke="none" stroke-width="1" fill="none" fill-rule="evenodd">
        <g id="主页-——-1440" transform="translate(-933.000000, -1760.000000)">
            <g id="编组-19" transform="translate(933.000000, 1760.000000)">
                <g id="矩形备份-2">
                    <use fill="black" fill-opacity="1" filter="url(#filter-2)" xlink:href="#path-1"></use>
                    <use fill="#5DDA98" fill-rule="evenodd" xlink:href="#path-1"></use>
                </g>
                <g id="编组-14" transform="translate(145.000000, 34.000000)" fill="#033A6E" font-family="Alibaba-PuHuiTi-M, Alibaba PuHuiTi" font-size="26" font-weight="400">
                    <text id="How-to-Liquidity-min">
                        <tspan x="0" y="27">How to </tspan>
                        <tspan x="0" y="62">Liquidity mining</tspan>
                    </text>
                </g>
                <g id="编组" transform="translate(38.000000, 47.000000)">
                    <g>
                        <path d="M0.860795607,36.5444963 L3.93592444,38.8879871 C4.32137642,39.1817958 4.87727597,39.0987477 5.15770113,38.7058397 L29.4585036,4.65334095 C29.7251373,4.27927571 29.6416817,3.76388918 29.2700211,3.49066802 L27.1960065,1.96614281 C26.8183343,1.68873435 26.2843596,1.76445465 26.001459,2.1360773 L0.699895927,35.3699594 C0.418763519,35.7391394 0.49054953,36.2622027 0.860795607,36.5444963" id="Fill-1" fill="#B3AAB5"></path>
                        <g transform="translate(0.000000, 1.276590)">
                            <mask id="mask-4" fill="white">
                                <use xlink:href="#path-3"></use>
                            </mask>
                            <g id="Clip-4"></g>
                            <path d="M26.5673308,1.06815465 C26.5128725,1.08909114 26.4633649,1.12468316 26.4255269,1.17388391 L1.12396383,34.407766 C1.01787613,34.5469936 1.04510531,34.7469371 1.18514107,34.8533642 L4.25991628,37.197204 C4.33099504,37.2512899 4.4186942,37.2736221 4.50710062,37.2603624 C4.59479979,37.2464047 4.67224381,37.2003444 4.72387316,37.1281136 L29.0246756,3.07491696 C29.1268734,2.9321999 29.0954007,2.73853739 28.9532432,2.6342039 L26.8792287,1.10967868 C26.7865787,1.04128616 26.6681141,1.02942215 26.5673308,1.06815465 M4.96327774,38.2175088 C4.86850606,38.2537987 4.76878362,38.2799693 4.66552492,38.2956717 C4.28820633,38.3515023 3.91371675,38.2558923 3.61172042,38.025591 L0.536591593,35.6821002 C-0.0599749137,35.2277784 -0.177025011,34.3739186 0.275615848,33.7789735 L25.5775326,0.545440349 C26.0347706,-0.0554368364 26.9029216,-0.17861317 27.5129259,0.2697766 L29.5869404,1.79430182 C30.1937621,2.240249 30.3277862,3.06758919 29.8917658,3.67823673 L5.59131693,37.7307354 C5.43183175,37.954058 5.21470559,38.1212009 4.96327774,38.2175088" id="Fill-3" fill="#050101" mask="url(#mask-4)"></path>
                        </g>
                        <path d="M18.4531423,9.61933616 L7.35955137,1.98240348 C6.78844591,1.5894954 7.01582722,0.707022461 7.70822628,0.63479158 C9.75430441,0.42123941 13.1409775,0.383902674 16.1669523,1.82258829 C20.8949275,4.0701202 21.7008404,5.14765142 21.7008404,5.14765142 L18.4531423,9.61933616 Z" id="Fill-5" fill="#ECEDEE"></path>
                        <path d="M7.70009289,1.17024224 C7.61699086,1.20199592 7.5858718,1.27248209 7.57420215,1.3171466 C7.5597035,1.37227935 7.55192373,1.47696178 7.66296219,1.55337996 L18.3268979,8.89406135 L21.0034906,5.20958853 C20.4914406,4.78387995 19.1310427,3.81242694 15.936742,2.29383373 C13.0978351,0.944477121 9.92545923,0.92982158 7.76445276,1.1555867 C7.74005259,1.15802929 7.71883505,1.16326341 7.70009289,1.17024224 L7.70009289,1.17024224 Z M18.579033,10.344262 L7.05614054,2.41212488 C6.61163307,2.10575428 6.41148095,1.57326962 6.54691958,1.05613839 C6.68165096,0.540053975 7.11625691,0.170176033 7.65270705,0.114694341 C9.95092028,-0.12537738 13.3337034,-0.105487717 16.3975163,1.35099392 C21.1078102,3.59015123 22.0371385,4.71583637 22.1276666,4.83691905 L22.3568161,5.14294071 L18.579033,10.344262 Z" id="Fill-7" fill="#050101"></path>
                        <path d="M24.4940942,14.2780884 L35.4770003,22.0692532 C36.0424478,22.470187 36.8101691,21.9656176 36.649623,21.2970458 C36.1743501,19.3220372 35.086244,16.1571382 32.7063432,13.8178346 C28.9883229,10.1630218 27.6908703,9.77081165 27.6908703,9.77081165 L24.4940942,14.2780884 Z" id="Fill-9" fill="#ECEDEE"></path>
                        <path d="M25.2290698,14.1547027 L35.7865642,21.6440332 C35.8961882,21.7221961 35.9937889,21.6803231 36.041882,21.6485694 C36.0892678,21.6171647 36.1642365,21.5456317 36.133471,21.4179191 C35.6316762,19.3312492 34.5647875,16.3833918 32.3319951,14.188899 C29.8262036,11.7253723 28.4463562,10.7800899 27.8628738,10.4412678 L25.2290698,14.1547027 Z M36.3767655,22.6496824 C35.9782293,22.8021699 35.5277102,22.7498286 35.1673657,22.4944035 L23.7594016,14.4014043 L27.4774219,9.15855897 L27.8462534,9.27056918 C27.9919472,9.3145358 29.3763917,9.80584537 33.0806206,13.4470495 C35.4902259,15.8153151 36.6320832,18.9575329 37.1657044,21.1764516 C37.2901806,21.6949786 37.0808342,22.2215313 36.6324368,22.5181315 C36.5507493,22.5722174 36.4651719,22.6158351 36.3767655,22.6496824 L36.3767655,22.6496824 Z" id="Fill-11" fill="#050101"></path>
                        <polygon id="Fill-13" fill="#CBCBCB" opacity="0.25" points="29.7776861 11.1651468 26.4691643 15.7205775 24.2742098 14.1684859 27.5827316 9.61305522"></polygon>
                        <polygon id="Fill-15" fill="#CBCBCB" opacity="0.25" points="21.9700557 5.21356646 18.6615339 9.7693461 12.5897811 5.80851164 19.7751011 3.66147487"></polygon>
                        <path d="M23.3983144,14.6179923 L18.2325506,10.9649242 C17.9563689,10.7698659 17.8930699,10.3905666 18.0911003,10.1180433 L21.7928538,5.02070652 C21.9908842,4.74818324 22.3752753,4.68572272 22.651457,4.88112993 L27.8168671,8.53384909 C28.0930488,8.7292563 28.1567014,9.10855566 27.958671,9.38107894 L24.2569175,14.4780668 C24.0588871,14.75059 23.674496,14.8133995 23.3983144,14.6179923" id="Fill-17" fill="#EDEBEC"></path>
                        <path d="M23.7072771,14.1928769 C23.7451151,14.2190475 23.7981589,14.210324 23.8257417,14.1729873 L27.5274952,9.07599942 C27.5444693,9.05262035 27.5448229,9.02924127 27.5423475,9.0135389 C27.5395185,8.99818548 27.5317388,8.97585323 27.5080458,8.95910404 L22.3426357,5.30673383 C22.3185891,5.2896357 22.2948962,5.28928675 22.2793367,5.29172934 C22.2627163,5.29417193 22.2411451,5.30219759 22.2241711,5.32557667 L18.5220639,10.4229134 C18.4951884,10.4602502 18.5036754,10.5125914 18.5415133,10.5394599 L23.7072771,14.1928769 Z M24.1722949,15.1775897 C23.82362,15.3108853 23.415536,15.2742465 23.0894931,15.0435962 L23.0891395,15.0432472 L17.9237293,11.3901792 C17.4102648,11.0279779 17.2918002,10.3203247 17.6599245,9.81331272 L21.3616781,4.71597594 C21.5399054,4.4706701 21.8037101,4.30876127 22.1064137,4.25886264 C22.40841,4.20966189 22.7118209,4.27979912 22.9604197,4.45566562 L28.1258299,8.10838477 C28.3747824,8.2846002 28.5392183,8.54560841 28.5890795,8.84325547 C28.6389407,9.14160042 28.5682156,9.44064324 28.3896346,9.68594909 L24.6878811,14.7832859 C24.5535034,14.9678759 24.3728006,15.1008226 24.1722949,15.1775897 L24.1722949,15.1775897 Z" id="Fill-19" fill="#050101"></path>
                        <path d="M36.5700573,28.436039 L34.9009441,27.184386 C34.4048073,26.8120655 33.6979096,26.9003477 33.3106895,27.3825848 L28.8776381,32.9080727 C28.4844063,33.3983355 28.5696301,34.1108739 29.0682423,34.4971521 L33.1872741,37.6910132 L36.5700573,28.436039 Z" id="Fill-21" fill="#F5CD64"></path>
                        <path d="M34.2098535,27.478753 C34.0277362,27.478753 33.8470335,27.5576138 33.7268008,27.7073097 L29.2937494,33.2327976 C29.1915516,33.3601613 29.1459339,33.5192786 29.1653833,33.6801406 C29.1844791,33.8413515 29.2665202,33.9854643 29.3959472,34.0859595 L32.9375083,36.8317798 L35.939083,28.6201405 L34.5800995,27.6012315 C34.470122,27.5185324 34.3396341,27.478753 34.2098535,27.478753 L34.2098535,27.478753 Z M33.4371814,38.5503165 L28.7403252,34.9091124 C28.3877604,34.6355423 28.164269,34.2429831 28.1115788,33.802968 C28.0588885,33.3633017 28.1833648,32.9302654 28.4620218,32.5830686 L32.8947196,27.0579296 C33.4569844,26.3572552 34.5008874,26.2267511 35.2219301,26.7676103 L37.201173,28.2520073 L33.4371814,38.5503165 Z" id="Fill-23" fill="#050101"></path>
                        <path d="M38.6159586,18.9345726 L39.1835278,22.6253263 L44.9928903,17.2540705 L39.2256092,18.1177006 C38.8288412,18.1770207 38.5558422,18.5427113 38.6159586,18.9345726" id="Fill-25" fill="#F5CD64"></path>
                        <path d="M43.3840703,18.024603 L39.3053518,18.6352506 C39.2353339,18.6453699 39.194667,18.6875918 39.1766321,18.7120177 C39.1585972,18.7360947 39.1299535,18.7870401 39.1405623,18.8557816 L39.1405623,18.8561305 L39.5567797,21.5632183 L43.3840703,18.024603 Z M38.8102759,23.6875739 L38.0917085,19.0128052 C38.0411401,18.6854982 38.1231812,18.3578421 38.3222725,18.0909019 C38.5217173,17.8243106 38.8141658,17.6498399 39.1462203,17.5999413 L46.6020639,16.4836776 L38.8102759,23.6875739 Z" id="Fill-27" fill="#050101"></path>
                        <path d="M26.7628505,45.3168147 L30.7605887,40.5970326 C31.9660986,39.1737004 32.8710267,37.5266967 33.4216218,35.7530273 L36.5582815,25.6487296 C36.9988991,24.2285378 37.8564414,22.9692081 39.0223452,22.0298577 L52.8583032,10.8801314 C53.3215528,10.5067641 53.9754067,10.4708231 54.4779088,10.7904535 L57.2089598,12.5292287 C57.6223482,12.7923306 57.872008,13.2445587 57.872008,13.7299363 L57.872008,19.3203273 C57.872008,20.7544767 58.5148994,22.1149995 59.628113,23.0369028 L64.1962494,26.820126 C65.0389394,27.5180089 65.525882,28.5480841 65.525882,29.6339899 L65.525882,41.52417 C65.525882,42.3302248 65.7476053,43.121275 66.1680662,43.8125281 L67.2936567,45.6633135 C67.7788311,46.4613427 67.196056,47.4764133 66.25329,47.4764133 L27.7858895,47.4764133 C26.654641,47.4764133 26.0372106,46.173466 26.7628505,45.3168147" id="Fill-29" fill="#D5CFD4"></path>
                        <path d="M27.1698029,45.6523219 C26.9647,45.8944873 26.9229722,46.2102793 27.0587644,46.4964113 C27.1942031,46.7821943 27.4657876,46.9531756 27.7858188,46.9531756 L66.2532192,46.9531756 C66.5025253,46.9531756 66.7246023,46.8251141 66.8473104,46.611213 C66.9700185,46.3973119 66.9668358,46.1432825 66.8388234,45.9325219 L65.7132328,44.0817364 C65.243618,43.30918 64.9953727,42.4249624 64.9953727,41.5243445 L64.9953727,29.6338155 C64.9953727,28.7003971 64.5798626,27.8207157 63.8552836,27.2212342 L59.2871472,23.438011 C58.0508718,22.4138678 57.3414987,20.9134196 57.3414987,19.3201529 L57.3414987,13.7301108 C57.3414987,13.4212976 57.1844889,13.1365613 56.9210378,12.9687205 L54.1903404,11.2306431 C53.8802107,11.0324444 53.4795528,11.0551256 53.1938232,11.2857759 L39.3578652,22.4351532 C38.2697591,23.3120431 37.4769303,24.4761118 37.06531,25.8020893 L33.9286503,35.9063871 C33.3543622,37.7564746 32.4253876,39.4477939 31.1675411,40.9328887 L27.1698029,45.6523219 Z M66.2532192,48 L27.7858188,48 C27.0541673,48 26.4073859,47.5934832 26.0976098,46.9395669 C25.7874801,46.2853017 25.8864953,45.5350776 26.3557566,44.9809585 L30.3534948,40.2615254 C31.5201059,38.8842534 32.3818916,37.3157616 32.9144519,35.5996675 L36.0511116,25.4953698 C36.5242627,23.9711935 37.4355561,22.6323052 38.6866837,21.6242133 L52.5226417,10.474487 C53.1662404,9.95630893 54.0672786,9.9064103 54.7653357,10.3506128 L57.4963868,12.0890391 C58.063956,12.4508914 58.4023757,13.0639815 58.4023757,13.7301108 L58.4023757,19.3201529 C58.4023757,20.6032106 58.9734812,21.8115949 59.9689375,22.6357946 L64.5370739,26.4190178 C65.5024719,27.2184427 66.0562497,28.3901881 66.0562497,29.6338155 L66.0562497,41.5243445 C66.0562497,42.2351382 66.2521584,42.9333701 66.6227581,43.5433197 L67.7483486,45.3941052 C68.075806,45.9325219 68.084293,46.5805062 67.7702734,47.1272974 C67.456961,47.6733908 66.8897455,48 66.2532192,48 L66.2532192,48 Z" id="Fill-31" fill="#050101"></path>
                    </g>
                    <g transform="translate(20.000000, 10.000000)">
                        <mask id="mask-6" fill="white">
                            <use xlink:href="#path-5"></use>
                        </mask>
                        <g id="Clip-34"></g>
                        <path d="M8.23611296,33.8569631 L11.9206376,29.4684056 C13.0317311,28.1447885 13.8655823,26.6135521 14.3729745,24.9642299 L17.2640128,15.5688395 C17.670139,14.2483948 18.4604388,13.0774078 19.5350623,12.2035738 L32.2867893,1.83635575 C32.713452,1.48914859 33.3164451,1.45566161 33.7795777,1.75316703 L36.2967107,3.36970716 C36.6773434,3.61433839 36.9074934,4.03486443 36.9074934,4.48605748 L36.9074934,9.68429501 C36.9074934,11.017782 37.5002182,12.282885 38.5259791,13.1401518 L42.7363081,16.6580477 C43.5131529,17.3069902 43.9617684,18.264718 43.9617684,19.2742625 L43.9617684,30.3306074 C43.9617684,31.0800108 44.1664248,31.8153145 44.5534309,32.4582646 L45.5908764,34.1791432 C46.0380756,34.9211443 45.5012949,35.8651247 44.632036,35.8651247 L9.17901986,35.8651247 C8.13626326,35.8651247 7.56726161,34.6536009 8.23611296,33.8569631" id="Fill-33" fill="#C6BFC6" mask="url(#mask-6)"></path>
                    </g>
                    <g transform="translate(40.000000, 25.000000)">
                        <path d="M5.12387486,4.99320437 L10.8278975,4.24479945 C11.3509925,4.17593641 11.8322828,4.5338844 11.9048158,5.0452886 L12.6844561,10.5466415 C12.7559172,11.0521032 12.4014703,11.5208613 11.8865933,11.6016093 L5.95353788,12.5324838 C5.4068607,12.6181256 4.8994871,12.2343103 4.84732051,11.6949414 L4.29707027,6.01111895 C4.24847674,5.50950239 4.61364281,5.06031962 5.12387486,4.99320437" id="Fill-35" fill="#F5CD64"></path>
                        <path d="M10.9553483,4.76088774 C10.9367684,4.76088774 10.9181886,4.76193641 10.8988941,4.76438332 L5.19487143,5.51278824 C4.96905445,5.54250072 4.80898165,5.74000131 4.83041997,5.96197101 L5.38067021,11.6450944 C5.39210398,11.7600991 5.44963015,11.8625198 5.54324415,11.9334802 C5.63614354,12.004091 5.75155317,12.0341531 5.86874932,12.0145778 L11.8018047,11.0837033 C12.0269071,11.0483979 12.184836,10.840061 12.1533932,10.6187904 L11.3737529,5.11778705 C11.3448112,4.91119793 11.1629427,4.76088774 10.9553483,4.76088774 M5.80371975,13.0684969 C5.47428422,13.0684969 5.14985096,12.9618815 4.88687422,12.7626331 C4.56136904,12.5165439 4.35270271,12.1449631 4.31375643,11.744369 L3.76350619,6.06089609 C3.68740015,5.27578752 4.25372913,4.57876772 5.0526639,4.47390014 L10.7566865,3.72514567 C11.5699135,3.61818075 12.3231132,4.17852315 12.4356644,4.97341935 L13.2153047,10.4747723 C13.3260693,11.2563852 12.7683157,11.9939538 11.9715247,12.1194454 L6.03846937,13.0503199 C5.9605768,13.0622048 5.88196962,13.0684969 5.80371975,13.0684969" id="Fill-37" fill="#050101"></path>
                        <path d="M0.772324432,10.1793953 C0.592242534,10.1793953 0.437529317,10.046563 0.417520217,9.86723944 L0.0369900168,6.42723348 C-0.191685409,4.36064317 0.649768696,2.33739812 2.28765643,1.01466846 L3.44532577,0.0795992628 C3.59753785,-0.0427462395 3.82264022,-0.0217727248 3.94841171,0.126789671 C4.07382589,0.275701625 4.05238757,0.496273088 3.90017549,0.618968148 L2.74286345,1.55403734 C1.2907745,2.72680637 0.544720922,4.52039144 0.747313057,6.35207838 L1.12820056,9.79243391 C1.14928158,9.98399201 1.00743135,10.1566739 0.811270715,10.1772979 C0.798407723,10.1786961 0.785187425,10.1793953 0.772324432,10.1793953" id="Fill-39" fill="#B2ABB3"></path>
                        <path d="M17.3271747,16 C17.2242707,16 17.1220814,15.9566547 17.0513349,15.8731102 C16.9259208,15.7241983 16.9473591,15.5036268 17.0995712,15.3809318 L18.2572405,14.4462121 C19.7093295,13.2734431 20.4550257,11.479858 20.2527909,9.64817108 L19.8719034,6.20781556 C19.8504651,6.0159079 19.9923153,5.84357552 20.1888332,5.82295156 C20.3803489,5.80197805 20.5611454,5.94075281 20.5822264,6.13266046 L20.9631139,9.57301599 C21.1914321,11.6389072 20.3499779,13.6625018 18.7120902,14.985581 L17.5544209,15.9199511 C17.4879621,15.9737831 17.4072111,16 17.3271747,16" id="Fill-41" fill="#B2ABB3"></path>
                    </g>
                </g>
            </g>
        </g>
    </g>
</svg>