<?xml version="1.0" encoding="UTF-8"?>
<svg width="243px" height="81px" viewBox="0 0 243 81" version="1.1" xmlns="http://www.w3.org/2000/svg" xmlns:xlink="http://www.w3.org/1999/xlink">
    <title>编组备份</title>
    <defs>
        <filter color-interpolation-filters="auto" id="filter-1">
            <feColorMatrix in="SourceGraphic" type="matrix" values="0 0 0 0 0.011765 0 0 0 0 0.227451 0 0 0 0 0.431373 0 0 0 1.000000 0"></feColorMatrix>
        </filter>
        <polygon id="path-2" points="0 81 243 81 243 0 0 0"></polygon>
    </defs>
    <g id="页面-1" stroke="none" stroke-width="1" fill="none" fill-rule="evenodd">
        <g id="编组备份" transform="translate(-118.000000, -174.000000)" filter="url(#filter-1)">
            <g transform="translate(118.000000, 174.000000)">
                <path d="M0,78 L0,6.27503322 C0,2.80926793 2.89887908,0 6.47364655,0 C9.23145719,0 11.6854281,1.69156989 12.5907465,4.21540417 L25.8883854,41.2992431 L26.1131648,41.2992431 L39.2898879,4.26798405 C40.1998569,1.71410412 42.6801813,0 45.4674457,0 C49.0763177,0 52,2.83480673 52,6.33211995 L52,78 L40.4695922,78 L40.4695922,30.565436 L40.2432626,30.565436 L29.7282375,61.4388398 C29.1903172,63.0192408 27.6664679,64.0873635 25.9488433,64.0873635 C24.2265681,64.0873635 22.6996184,63.0132316 22.1647985,61.4283238 L11.7567374,30.565436 L11.5304078,30.565436 L11.5304078,78 L0,78 Z" id="Fill-1" fill="#1B6D8A"></path>
                <path d="M71.6305638,61.5336111 C71.6305638,64.2937021 72.4109391,66.326565 73.9701259,67.6306658 C75.5261849,68.9363008 77.3715615,69.5883512 79.5,69.5883512 C81.6268746,69.5883512 83.4722512,68.9363008 85.031438,67.6306658 C86.587497,66.326565 87.3678723,64.2937021 87.3678723,61.5336111 L87.3678723,19.4663889 C87.3678723,16.7078322 86.587497,14.6749692 85.031438,13.3693342 C83.4722512,12.0652335 81.6268746,11.4101146 79.5,11.4101146 C77.3715615,11.4101146 75.5261849,12.0652335 73.9701259,13.3693342 C72.4109391,14.6749692 71.6305638,16.7078322 71.6305638,19.4663889 L71.6305638,61.5336111 Z M60,19.4663889 C60,16.2598352 60.5692517,13.4245667 61.7093191,10.9621176 C62.8493865,8.50120277 64.3694763,6.45299744 66.2711525,4.80983048 C68.0961986,3.24337532 70.1667736,2.05127379 72.4860053,1.22892319 C74.805237,0.409641064 77.1416713,0 79.5,0 C81.8567648,0 84.1931991,0.409641064 86.5124308,1.22892319 C88.8332264,2.05127379 90.9428984,3.24337532 92.8430107,4.80983048 C94.6680568,6.45299744 96.1490496,8.50120277 97.2906809,10.9621176 C98.4307483,13.4245667 99,16.2598352 99,19.4663889 L99,61.5336111 C99,64.8905199 98.4307483,67.7610759 97.2906809,70.1468131 C96.1490496,72.5356189 94.6680568,74.5117151 92.8430107,76.0781703 C90.9428984,77.719803 88.8332264,78.9502604 86.5124308,79.7710768 C84.1931991,80.5903589 81.8567648,81 79.5,81 C77.1416713,81 74.805237,80.5903589 72.4860053,79.7710768 C70.1667736,78.9502604 68.0961986,77.719803 66.2711525,76.0781703 C64.3694763,74.5117151 62.8493865,72.5356189 61.7093191,70.1468131 C60.5692517,67.7610759 60,64.8905199 60,61.5336111 L60,19.4663889 Z" id="Fill-3" fill="#1B6D8A"></path>
                <path d="M136,0 L136,61.3711372 C136,66.8631346 134.300607,71.4501127 130.90486,75.1336185 C129.205467,76.939016 127.194747,78.3684824 124.869662,79.4220176 C122.543059,80.4740059 119.830713,81 116.729587,81 C113.110595,81 110.102108,80.1924443 107.704127,78.5742389 C105.304627,76.9575805 103.403252,75.3594866 102,73.7799572 L110.859925,66.5599144 C111.670895,67.3891287 112.61399,68.0837503 113.684652,68.6468734 C114.753797,69.2115436 115.879132,69.4931052 117.060657,69.4931052 C117.725835,69.4931052 118.501876,69.3631537 119.38878,69.0986096 C120.274165,68.8356125 121.121583,68.3266359 121.934072,67.5747737 C122.745042,66.8987165 123.411738,65.9395508 123.926568,64.6972764 C124.442916,63.4580962 124.702609,61.8213263 124.702609,59.7900607 L124.702609,0 L136,0 Z" id="Fill-5" fill="#15A689"></path>
                <mask id="mask-3" fill="white">
                    <use xlink:href="#path-2"></use>
                </mask>
                <g id="Clip-8"></g>
                <polygon id="Fill-7" fill="#15A689" mask="url(#mask-3)" points="147 78 157 78 157 0 147 0"></polygon>
                <path d="M176.916298,78 L176.916298,10.5159762 L169.254189,10.5159762 C166.350874,10.5159762 164,8.16340209 164,5.2579881 C164,2.35407639 166.350874,0 169.254189,0 L195.745811,0 C198.647624,0 201,2.35407639 201,5.2579881 C201,8.16340209 198.647624,10.5159762 195.745811,10.5159762 L188.080699,10.5159762 L188.080699,78 L176.916298,78 Z" id="Fill-9" fill="#A4CE6A" mask="url(#mask-3)"></path>
                <path d="M215.631661,61.5336111 C215.631661,64.2937021 216.410441,66.326565 217.968002,67.6306658 C219.525562,68.9363008 221.370865,69.5883512 223.500782,69.5883512 C225.627571,69.5883512 227.47131,68.9363008 229.030434,67.6306658 C230.587995,66.326565 231.368339,64.2937021 231.368339,61.5336111 L231.368339,19.4663889 C231.368339,16.7078322 230.587995,14.6749692 229.030434,13.3693342 C227.47131,12.0652335 225.627571,11.4101146 223.500782,11.4101146 C221.370865,11.4101146 219.525562,12.0652335 217.968002,13.3693342 C216.410441,14.6749692 215.631661,16.7078322 215.631661,19.4663889 L215.631661,61.5336111 Z M204,19.4663889 C204,16.2598352 204.570793,13.4245667 205.710814,10.9621176 C206.850836,8.50120277 208.370865,6.45299744 210.270901,4.80983048 C212.095874,3.24337532 214.166366,2.05127379 216.488632,1.22892319 C218.804643,0.409641064 221.142548,0 223.500782,0 C225.854325,0 228.193793,0.409641064 230.514495,1.22892319 C232.830506,2.05127379 234.941658,3.24337532 236.841694,4.80983048 C238.666667,6.45299744 240.150728,8.50120277 241.289186,10.9621176 C242.430771,13.4245667 243,16.2598352 243,19.4663889 L243,61.5336111 C243,64.8905199 242.430771,67.7610759 241.289186,70.1468131 C240.150728,72.5356189 238.666667,74.5117151 236.841694,76.0781703 C234.941658,77.719803 232.830506,78.9502604 230.514495,79.7710768 C228.193793,80.5903589 225.854325,81 223.500782,81 C221.142548,81 218.804643,80.5903589 216.488632,79.7710768 C214.166366,78.9502604 212.095874,77.719803 210.270901,76.0781703 C208.370865,74.5117151 206.850836,72.5356189 205.710814,70.1468131 C204.570793,67.7610759 204,64.8905199 204,61.5336111 L204,19.4663889 Z" id="Fill-10" fill="#A4CE6A" mask="url(#mask-3)"></path>
            </g>
        </g>
    </g>
</svg>