<?xml version="1.0" encoding="utf-8"?>
<!-- Generator: Adobe Illustrator 25.3.1, SVG Export Plug-In . SVG Version: 6.00 Build 0)  -->
<svg version="1.1" id="图层_1" xmlns="http://www.w3.org/2000/svg" xmlns:xlink="http://www.w3.org/1999/xlink" x="0px" y="0px"
	 viewBox="0 0 25 20" style="enable-background:new 0 0 25 20;" xml:space="preserve">
<style type="text/css">
	.st0{fill:#163A69;}
</style>
<g id="Page-1">
	<g id="icon_twitter_hover">
		<g>
			<path id="路径_8_" class="st0" d="M25,2.4c-0.7,1-1.6,1.9-2.6,2.6c0,0.1,0,0.4,0,0.7c0,1.4-0.2,2.7-0.6,4.1
				c-0.4,1.4-1,2.6-1.8,3.9S18.2,16,17.1,17s-2.5,1.7-4.1,2.3C11.4,19.9,9.7,20,7.9,20C5,20,2.4,19.2,0,17.7c0.4,0,0.8,0.1,1.2,0.1
				c2.4,0,4.5-0.7,6.4-2.2c-1.1,0-2.1-0.4-3-1c-0.9-0.6-1.5-1.5-1.8-2.5c0.3,0.1,0.7,0.1,1,0.1c0.5,0,0.9-0.1,1.3-0.2
				c-1.2-0.2-2.2-0.8-2.9-1.7C1.4,9.4,1,8.3,1,7.1V7c0.7,0.4,1.5,0.6,2.3,0.6c-0.7-0.4-1.2-1-1.6-1.7S1,4.3,1,3.5
				C1,2.6,1.2,1.7,1.7,1C3,2.5,4.6,3.7,6.4,4.6s3.8,1.5,5.9,1.6c-0.1-0.4-0.1-0.8-0.1-1.2c0-1.4,0.5-2.6,1.5-3.6S15.9,0,17.3,0
				C18.8,0,20,0.5,21,1.6c1.2-0.2,2.2-0.6,3.3-1.2c-0.4,1.2-1.1,2.1-2.3,2.8C23,3.1,24,2.8,25,2.4L25,2.4z"/>
		</g>
	</g>
</g>
</svg>
